<svg width="16" height="22" viewBox="0 0 16 22" fill="none" xmlns="http://www.w3.org/2000/svg">
<path fill-rule="evenodd" clip-rule="evenodd" d="M3.37584 3.85915C4.65549 2.61971 6.19686 2 8 2C9.80314 2 11.3372 2.61267 12.6023 3.83803C13.8675 5.06339 14.5 6.54929 14.5 8.29577C14.5 9.16902 14.2746 10.169 13.8238 11.2958C13.373 12.4225 12.8277 13.4789 12.1879 14.4648C11.5481 15.4507 10.9156 16.3732 10.2903 17.2324C9.66499 18.0916 9.13423 18.7746 8.69799 19.2817L8 20C7.8255 19.8028 7.59284 19.5423 7.30201 19.2183C7.01118 18.8944 6.4877 18.2465 5.73154 17.2746C4.97539 16.3028 4.31376 15.3592 3.74664 14.4437C3.17953 13.5282 2.66331 12.493 2.19799 11.338C1.73266 10.1831 1.5 9.16902 1.5 8.29577C1.5 6.54929 2.12527 5.07043 3.37584 3.85915Z" stroke="white" stroke-width="3" stroke-linecap="round" stroke-linejoin="round"/>
<path d="M9 8.5C9 9.05228 8.55228 9.5 8 9.5C7.44772 9.5 7 9.05228 7 8.5C7 7.94772 7.44772 7.5 8 7.5C8.55228 7.5 9 7.94772 9 8.5Z" stroke="white" stroke-width="3" stroke-linecap="round" stroke-linejoin="round"/>
</svg>
