<svg xmlns="http://www.w3.org/2000/svg" xmlns:xlink="http://www.w3.org/1999/xlink" viewBox="0 0 297.77 315.97"><defs><style>.cls-1{mask:url(#mask);filter:url(#luminosity-noclip-3);}.cls-2,.cls-4{mix-blend-mode:multiply;}.cls-2{fill:url(#linear-gradient);}.cls-3{mask:url(#mask-2);filter:url(#luminosity-noclip-4);}.cls-4{fill:url(#linear-gradient-2);}.cls-5{fill:none;}.cls-6{fill:#e8e1d8;}.cls-7{fill:#dadada;}.cls-8{fill:#ededed;}.cls-9{fill:#eae4d8;}.cls-10{fill:#9ec14f;}.cls-11{fill:#cdc3b8;}.cls-12{fill:#00acdc;}.cls-13{fill:#fef9ee;}.cls-14{fill:#bcd369;}.cls-15{fill:#52c3f1;}.cls-16{fill:#f8bb95;}.cls-17{fill:#fcd7b8;}.cls-18{fill:#fff;}.cls-19{fill:#3c3c3b;}.cls-20{fill:#242422;}.cls-21{fill:#343333;}.cls-22{fill:#1d1d1b;}.cls-23{clip-path:url(#clip-path);}.cls-24{fill:#d20a11;}.cls-25{fill:#f5f5f5;}.cls-26{mask:url(#mask-3);}.cls-27{fill:url(#linear-gradient-3);}.cls-28{fill:#7a110f;opacity:0.3;}.cls-29{mask:url(#mask-4);}.cls-30{fill:url(#linear-gradient-4);}.cls-31{filter:url(#luminosity-noclip-2);}.cls-32{filter:url(#luminosity-noclip);}</style><filter id="luminosity-noclip" x="46.2" y="-8295.78" width="41.01" height="32766" filterUnits="userSpaceOnUse" color-interpolation-filters="sRGB"><feFlood flood-color="#fff" result="bg"/><feBlend in="SourceGraphic" in2="bg"/></filter><mask id="mask" x="46.2" y="-8295.78" width="41.01" height="32766" maskUnits="userSpaceOnUse"><g class="cls-32"/></mask><linearGradient id="linear-gradient" x1="66.71" y1="24.98" x2="66.71" y2="3.93" gradientUnits="userSpaceOnUse"><stop offset="0.15"/><stop offset="0.25" stop-color="#050505"/><stop offset="0.35" stop-color="#121212"/><stop offset="0.46" stop-color="#282828"/><stop offset="0.58" stop-color="#484848"/><stop offset="0.69" stop-color="#707070"/><stop offset="0.81" stop-color="#a1a1a1"/><stop offset="0.93" stop-color="#dadada"/><stop offset="1" stop-color="#fff"/></linearGradient><filter id="luminosity-noclip-2" x="54.25" y="-8295.78" width="25.67" height="32766" filterUnits="userSpaceOnUse" color-interpolation-filters="sRGB"><feFlood flood-color="#fff" result="bg"/><feBlend in="SourceGraphic" in2="bg"/></filter><mask id="mask-2" x="54.25" y="-8295.78" width="25.67" height="32766" maskUnits="userSpaceOnUse"><g class="cls-31"/></mask><linearGradient id="linear-gradient-2" x1="67.08" y1="30.16" x2="67.08" y2="1.4" gradientTransform="translate(0 10.48) scale(1 0.56)" gradientUnits="userSpaceOnUse"><stop offset="0"/><stop offset="0.37" stop-color="#020202"/><stop offset="0.51" stop-color="#090909"/><stop offset="0.6" stop-color="#141414"/><stop offset="0.68" stop-color="#252525"/><stop offset="0.75" stop-color="#3b3b3b"/><stop offset="0.8" stop-color="#575757"/><stop offset="0.86" stop-color="#777"/><stop offset="0.91" stop-color="#9d9d9d"/><stop offset="0.95" stop-color="#c8c8c8"/><stop offset="0.99" stop-color="#f6f6f6"/><stop offset="1" stop-color="#fff"/></linearGradient><clipPath id="clip-path"><rect class="cls-5" x="139.88" y="195.64" width="31.15" height="25.65"/></clipPath><filter id="luminosity-noclip-3" x="46.2" y="3.93" width="41.01" height="21.06" filterUnits="userSpaceOnUse" color-interpolation-filters="sRGB"><feFlood flood-color="#fff" result="bg"/><feBlend in="SourceGraphic" in2="bg"/></filter><mask id="mask-3" x="46.2" y="3.93" width="41.01" height="21.06" maskUnits="userSpaceOnUse"><g class="cls-1"><path class="cls-2" d="M66.63,5h.11A20.49,20.49,0,0,1,87.2,25c0-.2,0-.38,0-.54A20.49,20.49,0,0,0,66.74,3.93h-.11A20.5,20.5,0,0,0,46.2,24.49c0,.15,0,.32,0,.49A20.49,20.49,0,0,1,66.63,5Z"/></g></mask><linearGradient id="linear-gradient-3" x1="66.71" y1="24.98" x2="66.71" y2="3.93" gradientUnits="userSpaceOnUse"><stop offset="0.15" stop-color="#fff"/><stop offset="1" stop-color="#fff"/></linearGradient><filter id="luminosity-noclip-4" x="54.25" y="11.26" width="25.67" height="16" filterUnits="userSpaceOnUse" color-interpolation-filters="sRGB"><feFlood flood-color="#fff" result="bg"/><feBlend in="SourceGraphic" in2="bg"/></filter><mask id="mask-4" x="54.25" y="11.26" width="25.67" height="16" maskUnits="userSpaceOnUse"><g class="cls-3"><path class="cls-4" d="M67.1,27.27c-7.09,0-12.84-3.58-12.85-8s5.73-8,12.81-8,12.85,3.58,12.85,8S74.18,27.26,67.1,27.27Z"/></g></mask><linearGradient id="linear-gradient-4" x1="67.08" y1="30.16" x2="67.08" y2="1.4" gradientTransform="translate(0 10.48) scale(1 0.56)" gradientUnits="userSpaceOnUse"><stop offset="0" stop-color="#fff"/><stop offset="0.86" stop-color="#fff"/><stop offset="1" stop-color="#fff"/></linearGradient></defs><g id="Layer_2" data-name="Layer 2"><g id="Capa_1" data-name="Capa 1"><polygon class="cls-6" points="78.66 104.73 77.52 104.97 78.66 112.46 78.66 104.73"/><polygon class="cls-7" points="78.55 177.48 0 206.75 0 29.27 78.55 0 78.55 177.48"/><polygon class="cls-8" points="78.55 177.48 149.05 204 149.05 26.52 78.55 0 78.55 177.48"/><polygon class="cls-7" points="219.54 177.48 149.05 204 149.05 26.52 219.54 0 219.54 177.48"/><polygon class="cls-8" points="219.54 177.48 297.77 206.75 297.77 29.27 219.54 0 219.54 177.48"/><path class="cls-9" d="M290,196V32.63C266.54,24.39,243,16.35,219.42,8.22q0,81.68.13,163.35Q254.76,183.9,290,196Z"/><path class="cls-10" d="M219.55,162.35c3-1.37,4.43-2.06,7.28-3.41q-1.28-18.28-2.71-36.54c-1.83-2.16-2.75-2.85-4.61-5C219.53,132.51,219.55,147.24,219.55,162.35Z"/><path class="cls-11" d="M219.55,171.57q35,12.26,70.13,24.28v-4.52c-19.34-20.81-38.59-41.63-58.92-61.47q1.05,17.58,1.94,35.18c-5.09,2-7.69,3.05-13.15,5.11Z"/><path class="cls-11" d="M237.77,108.62a21,21,0,0,1-5.25-1c0,6.17.42,11,.45,17.39,19.41,18.42,38,37.57,56.71,56.7q0-13.62,0-27.22C272.52,139.78,255.09,123.18,237.77,108.62Z"/><path class="cls-11" d="M219.42,8.22v4.2c3.81.05,7.52-.08,11.14-.35C226.13,10.55,223.91,9.78,219.42,8.22Z"/><path class="cls-11" d="M219.43,31.51c0,9.4,0,18.42,0,27.81,4.25-2,6.33-2.6,10.44-4.72.37-8.65.55-13.11.92-22.65Q225.25,32,219.43,31.51Z"/><path class="cls-11" d="M236.17,31.86c-.32,8.3-.47,12.22-.79,19.82,4.58-2.5,6.85-3.79,11.36-6.49-1.58-5.35-2.38-8.08-4-13.71C240.61,31.65,238.4,31.78,236.17,31.86Z"/><path class="cls-11" d="M281,29.46c-6.43-.8-9.63-1.19-16-2a111.34,111.34,0,0,1-15,3.16c1.16,5.48,1.73,8.14,2.88,13.34,12.26,1.56,24.53,3.1,36.79,4.72V32.5Z"/><path class="cls-12" d="M219.42,27.07a140.28,140.28,0,0,0,22.08-.3,101.13,101.13,0,0,0-2.37-10.43,125.72,125.72,0,0,1-19.71.88Z"/><path class="cls-12" d="M248.93,18.38c.64,2.44,1.15,4.83,1.6,7.17a103.85,103.85,0,0,0,11.54-2.65Z"/><path class="cls-10" d="M219.26,96.69a19.89,19.89,0,0,0,7.07,6.21c7,3.79,14.63,3.23,17-1.23s-1.3-11.16-8.3-14.94c-6.08-3.3-12.64-3.31-15.84-.33Z"/><path class="cls-11" d="M258.08,52.28c2,8.47,2.94,12.53,4.88,20.47Q254.23,82,245.15,90.87c3.53,4.44,4.75,9.42,2.69,13.21a8.73,8.73,0,0,1-3.77,3.59c14.55,12.38,31.17,26.34,45.62,38.69V56.93Q273.91,54.55,258.08,52.28Z"/><path class="cls-10" d="M236.62,83.87a29.54,29.54,0,0,1,2.62,1.61c6-6,9-9.18,15-15.73-2.32-7.33-3.48-11.07-5.81-18.83-5.31,3.06-8,4.54-13.36,7.34-.43,10.12-.65,14.94-1.07,24.38C234.9,83,235.76,83.41,236.62,83.87Z"/><path class="cls-10" d="M228.68,81c.36-7.74.54-11.7.91-19.88-4,2-6,2.93-10.14,4.77,0,6.23,0,9.35,0,15.28A19.29,19.29,0,0,1,228.68,81Z"/><path class="cls-11" d="M224.79,105.75a29.59,29.59,0,0,1-5.29-3.65c0,3.62,0,5.81,0,9.79,3.3,3.81,4.93,5.33,8.14,9.15-.17-5.75-.26-8.56-.43-14.12C226.4,106.56,225.6,106.19,224.79,105.75Z"/><path class="cls-9" d="M149.05,196V32.63Q113.79,20.42,78.55,8.22q0,81.68.11,163.35C102,179.94,125.56,187.91,149.05,196Z"/><path class="cls-11" d="M118.37,22c-3.88,1.19-5.81,1.77-9.73,2.87q11.82,15.55,24,30.8c6.47-.67,9.74-1,16.39-1.74v-.07Q138.49,40,128.62,25.55Z"/><path class="cls-11" d="M104.51,25.68c-5.87,4.84-8.82,7.11-14.89,11.38q9.9,14.69,20,29.23c7.3-3.51,10.88-5.34,18.14-9.21Q116,41.51,104.51,25.68Z"/><path class="cls-11" d="M84.17,10.15C85.3,16.8,85.85,20,87,26.21c5.26-4,7.83-6.12,12.94-10.62Z"/><path class="cls-11" d="M139.64,29.38c3.73,5.56,5.6,6.85,9.41,12.22v-9Z"/><path class="cls-11" d="M78.63,115.9c0,3.46,0,5.21,0,8.75a63.2,63.2,0,0,0,14.23,9l2.23-.2C88.7,126.4,85.44,122.92,78.63,115.9Z"/><path class="cls-11" d="M145.46,194.75q-13.22-16-26.65-31.75c-3.43-3.93-5.15-5.87-8.6-9.73A38.47,38.47,0,0,1,94.81,151l-1.9-.7a78.66,78.66,0,0,1-14.26-7.67q0,14.35,0,28.7l.5.48C101.19,179.63,123.33,187.17,145.46,194.75Z"/><path class="cls-11" d="M119.68,100.73Q99.12,97.25,78.6,93.45v1.22c1.51,7.7,2.25,11.54,3.74,19.43q8.66,9.44,17,19.15c4.12.1,6.15.13,10.19.2a18.54,18.54,0,0,0,3.6-2.85c4.55-4.51,8.77-10.29,13-16.5C123.58,108.74,122.28,106.08,119.68,100.73Z"/><path class="cls-11" d="M130.8,107.33c1.39-2.07,2.83-4.17,4.3-6.28l-7.38.26c1.19,2.47,1.79,3.69,3,6.16Z"/><path class="cls-11" d="M149.05,120.39c-.3.41-5.53,6.24-7.84,9.44l2.1,4.34c2.3-.57,3.45-.85,5.77-1.4C149.08,127.1,149.05,126,149.05,120.39Z"/><path class="cls-11" d="M149.05,59.05c-5.77.71-8.6.44-14.22,1.12,5.62,7.27,8.43,9.64,14.22,16.7Z"/><path class="cls-11" d="M138.14,96.75A158.05,158.05,0,0,1,148.76,83.4Q139.69,72.47,131,61.21c-7.43,4-11.1,5.9-18.54,9.54q6.45,13.2,13,26.35C130.5,97,133,96.88,138.14,96.75Z"/><path class="cls-11" d="M149.05,162q-5.49-11.9-11.09-23.75c-1.47-.06-2.21-.07-3.68-.12-1.76,2.16-3.58,4.23-5.46,6.16a29.16,29.16,0,0,1-14.15,8.26c11.6,13.16,23,25.32,34.38,38.68Z"/><path class="cls-12" d="M149.05,93.11c-5.2,6.23-9.84,10.83-14.19,17.18-.57.84-1.13,1.67-1.7,2.49a58.52,58.52,0,0,1,5.57,11c1.68-2.39,3-5.18,5.11-7.31s3.17-3.09,5.21-5Z"/><path class="cls-12" d="M128.31,119.8a109.3,109.3,0,0,1-11.4,14.09,19.82,19.82,0,0,1-8,5.06,31.9,31.9,0,0,1,5.94,8.66A26.52,26.52,0,0,0,125,141a103.16,103.16,0,0,0,8-9.36C131.46,127.65,130.13,123.7,128.31,119.8Z"/><path class="cls-12" d="M102.49,140l-.36-.23a27.54,27.54,0,0,1-8.53-2,62.44,62.44,0,0,1-15-8.42v9.17a72.35,72.35,0,0,0,14.49,7.64c.56.21,1.11.42,1.68.62a33.36,33.36,0,0,0,14.83,2C108,145.51,106,142.15,102.49,140Z"/><path class="cls-10" d="M83.46,61.6a7.32,7.32,0,0,0-4.8-3V75.9C83.81,71.42,86,65.44,83.46,61.6Z"/><path class="cls-11" d="M105.37,72.05c-6.35-.18-12.27-.86-18.8-1.24a26.23,26.23,0,0,1-8,8.71c0,3.89,0,6,0,10q19.5,3.57,39.05,6.8Q111.47,84.23,105.37,72.05Z"/><path class="cls-10" d="M87.16,59.19a9.68,9.68,0,0,1,.89,8c5.86.24,8.93.32,14.78.45q-10.14-14-20.18-28.17l-4.09.34c0,6.32,0,9.46,0,15.24C82.3,55.18,85.44,56.56,87.16,59.19Z"/><path class="cls-13" d="M219.55,171.57q0-81.66-.13-163.35c-23.48,8.06-46.92,16.27-70.37,24.41V196Q184.27,183.7,219.55,171.57Z"/><path class="cls-14" d="M187.79,101.48q-19.36,18.42-38.74,36.82v4.57a324.88,324.88,0,0,1,18.42,27.62c7.12,2.95,10.6,4.54,17.58,7.92A28.93,28.93,0,0,1,198,169c5.72-2,10.94-1.37,14.6,1.34,2.77-3.39,4.16-4.68,7-8,0-14.85,0-30.09,0-44.95C209,112.06,198.4,106.71,187.79,101.48Z"/><path class="cls-14" d="M209.43,175.05c-2.77-2.4-6.92-3-11.49-1.45a22.31,22.31,0,0,0-11.31,9.32C195.61,179.81,200.08,178.27,209.43,175.05Z"/><path class="cls-6" d="M168.46,86.52c6-5.79,8.94-8.69,14.86-14.55,6.68,4.35,10,6.44,16.57,10.57-5.17,5.95-7.76,8.9-12.93,14.81C179.63,93.05,175.94,90.92,168.46,86.52Z"/><path class="cls-6" d="M149.05,32.63v9c2.22,1.56,3.32,2.33,5.53,3.83,3.86-7,5.78-10.62,9.65-18.07Z"/><path class="cls-6" d="M149.05,132.85q17.8-16.39,35.52-32.9c-8-3.88-12-5.8-20.17-9.74l-.49.35c-4.95,9.54-9.7,19.15-14.37,28.82-.17.34-.33.67-.49,1Z"/><path class="cls-6" d="M154,55c-2,1.62-3,2.43-5,4V76.87l3.61,1.84c3.5-6,7.24-12,11.35-17.81C160,58.61,158,57.44,154,55Z"/><path class="cls-6" d="M169.45,80.67C173.8,76.42,176,74.28,180.3,70c-1.2-.67-1.81-1-3-1.66C174.53,72.31,171.93,76.45,169.45,80.67Z"/><path class="cls-6" d="M206.56,12.66c-1.44,4.15-2.17,6.19-3.61,10.2l.32-.2c5.56-3.25,11-6.74,16.15-10.39v-4C214.36,10,211.77,10.85,206.56,12.66Z"/><path class="cls-6" d="M219.43,31.38q-5.79,3.69-11.82,7.12a75.49,75.49,0,0,0-15,11.38c-2.49,6.24-3.73,9.28-6.25,15.27,7.69,4.44,11.48,6.57,19.09,10.73,5.63-6.57,8.43-9.88,14-16.56Q219.44,45.36,219.43,31.38Z"/><path class="cls-6" d="M170.6,25.14Q164.66,36.63,158.35,48c4.14,2.73,6.2,4,10.32,6.6A130.38,130.38,0,0,1,196.5,27c1.79-4.86,2.69-7.34,4.45-12.44Z"/><path class="cls-6" d="M178.2,185.84c-6.87-3.46-10.31-5.08-17.4-8.07-4.63-7.78-7-8.88-11.75-15.74v29.23c2.28,1.07,3.41,1.62,5.65,2.75C164.36,190.64,169,189,178.2,185.84Z"/><path class="cls-15" d="M149.05,111.46c3.65-7.49,7.37-15,11.34-22.32a12.06,12.06,0,0,1-1.07-.76c-1.41-1.13-3.15-3.45-5.49-4.07q-2.47,4.41-4.78,8.8Z"/><path class="cls-15" d="M167.55,62.33c-3.73,5.27-7.16,10.69-10.37,16.15,2.86.67,5,2.69,6.76,4.25,3.34-5.84,6.88-11.56,10.74-17C172.41,64.47,169.81,63.63,167.55,62.33Z"/><path class="cls-15" d="M219.42,17.07c-4.82,3.31-9.88,6.5-15.1,9.54-12.76,7.46-23.46,18.09-32.41,29.8,2.21,1.37,4.85,2.17,7.08,3.46C186.6,50,195.73,41,206.56,34.8c4.36-2.51,8.68-5.13,12.86-7.86Z"/><path class="cls-14" d="M219.29,86.31A6,6,0,0,0,218,88c-1.39,2.55-.76,5.83,1.34,8.88Z"/><path class="cls-14" d="M219.47,81.12c0-5.94,0-9,0-15.28-4.17,5-6.28,7-10.49,12,3.28,1.77,5.1,2.75,8.09,4.33A11.09,11.09,0,0,1,219.47,81.12Z"/><path class="cls-6" d="M215.31,97.45v.11a14,14,0,0,1-2.8-8.46c-3.31-1.87-5.45-3.09-9.19-5.25-4.85,5.54-7.28,8.29-12.14,13.8q14.19,7.09,28.33,14.24c0-4,0-6.14,0-9.79A24.42,24.42,0,0,1,215.31,97.45Z"/><path class="cls-13" d="M78.66,171.57q0-81.66-.11-163.35C55.14,16.63,31.4,24.07,8.05,32.63V196Q43.29,183.61,78.66,171.57Z"/><path class="cls-6" d="M56.48,179.16c-7.07-2.24-10.42-3.35-17.39-5.37q-11,9.53-22,19Q36.79,185.91,56.48,179.16Z"/><path class="cls-6" d="M8.25,192.43c9.39-8.64,18.67-17.38,27.94-26.15A153.73,153.73,0,0,0,19,154.83c-3.43-9.3-7-18.55-10.72-27.73Q8.25,159.77,8.25,192.43Z"/><path class="cls-6" d="M8.23,32.56v34C27,58.85,45.88,51.66,64.74,44.34c-2.17-9.71-4.18-19.44-6.15-29.2C41.75,20.79,24.86,26.34,8.23,32.56Z"/><path class="cls-6" d="M63.61,13.44c1.9,9.38,3.84,18.75,6,28.08,3.7-2.8,5.5-4.2,9-7V25.62c-1.16-6.26-1.73-9.52-2.85-16.38C71.12,10.88,68.66,11.72,63.61,13.44Z"/><path class="cls-6" d="M32.05,121.43c-5.61-6.71-14-10.19-22.61-11.05,6,12.69,11.82,25.4,17.25,38.36A180.76,180.76,0,0,1,44.77,162q11.7-9.94,23.62-19.61C54.33,140.25,41.09,132.26,32.05,121.43Z"/><path class="cls-6" d="M78.64,116.54c-.89-.31-1.32-.46-2.19-.78-1.66-8.47-2.46-12.54-4-20.75-11.15,1.8-22.32,3.48-33.48,5.26A36.24,36.24,0,0,1,48.85,109a43.86,43.86,0,0,0,29.79,16.08Z"/><path class="cls-6" d="M78.66,171.57q0-14.35,0-28.71-1.74.1-3.42.09-13.1,10.61-25.68,21.81c9.52,2.49,19,4.8,28.64,7Z"/><path class="cls-15" d="M16.62,106.53c3.47-2.22,7-4.59,10.5-6.52A61.54,61.54,0,0,0,8.05,97.22V106A57.09,57.09,0,0,1,16,107,6,6,0,0,1,16.62,106.53Z"/><path class="cls-15" d="M78.64,129.41C65.11,127.13,53.57,123,44.81,112A35.28,35.28,0,0,0,33,102.43a24.09,24.09,0,0,0-3.56,1.6c-2.56,1.41-5.08,3-7.59,4.61a31.28,31.28,0,0,1,14.26,9.77C47,132,61.74,137.22,78.65,138.58,78.64,134.84,78.64,133,78.64,129.41Z"/><path class="cls-14" d="M78.77,58.66c-3.72-.85-8.7.2-13.26,3.18-7,4.55-10.26,11.83-7.37,16.25S69,82.4,76,77.85a22,22,0,0,0,2.8-2.15Z"/><path class="cls-14" d="M78.57,55c0-6,0-8.54,0-15.2-3.34,2.88-5.08,3.89-8.6,6.78.36,3.94.56,6,.92,9.59A21.77,21.77,0,0,1,78.57,55Z"/><path class="cls-6" d="M54.55,80.5c-3.73-5.71.53-15.12,9.54-21a27.1,27.1,0,0,1,2.41-1.42C66,54.84,65.72,53,65.19,49.4c-19,7.47-38.07,14.81-57,22.61,0,8.79,0,13,0,21.19a63.48,63.48,0,0,1,25.35,4.34c12.79-2.17,25.59-4.26,38.39-6.4-.53-3-.81-4.64-1.31-7.58C63.81,85.78,57.34,84.77,54.55,80.5Z"/><path class="cls-6" d="M77.63,80.2c-.89.58-1.79,1.08-2.69,1.55.47,3.44.74,5.34,1.25,8.92L78.6,89.4c0-4,0-6.13,0-9.88C78.27,79.76,78,80,77.63,80.2Z"/><path class="cls-16" d="M125.4,184c0,4,1,7.28,5,7.28H131V260.4h47.58V191.25a7.5,7.5,0,0,0,2.6-.89s6.79-4.88,10.28-16.15c1.5-4.84,5.08-11.66,5-19.17-.06-5.5.66-14.34-7.61-14.34-5.47,0-6.12,7.54-6.89,14.72v-6.56A6.11,6.11,0,0,0,182,148V109.62a6.63,6.63,0,0,0-13.26,0V146h-1.22V123.93a6.63,6.63,0,0,0-13.26,0V146h-1.21V130.31a6.64,6.64,0,0,0-13.27,0V146H138.6v-8a6.63,6.63,0,0,0-13.26,0v19.54a7.91,7.91,0,0,0,.06.86Z"/><path class="cls-17" d="M179.79,108.23V113a4.56,4.56,0,0,1-9.12,0v-4.78a7.89,7.89,0,0,1,9.12,0Z"/><rect class="cls-18" x="128.21" y="227.47" width="56.25" height="18.18"/><rect class="cls-19" x="125.91" y="236.56" width="60.85" height="79.42"/><rect class="cls-20" x="132.87" y="191.99" width="44" height="32.88" rx="1.64"/><path class="cls-21" d="M139.08,192.86h31.6a1.75,1.75,0,0,1,1.75,1.75v27.64a1.75,1.75,0,0,1-1.75,1.75h-31.6a1.76,1.76,0,0,1-1.76-1.76V194.61A1.76,1.76,0,0,1,139.08,192.86Z"/><rect class="cls-22" x="173.65" y="194.51" width="2" height="27.85"/><rect class="cls-22" x="134.1" y="194.51" width="2" height="27.85"/><path class="cls-19" d="M136.1,195.08h-3.66a2.79,2.79,0,0,0-2.78,2.78v21.06a2.78,2.78,0,0,0,2.78,2.78h3.66Z"/><path class="cls-19" d="M173.65,221.7h3.23a2.78,2.78,0,0,0,2.78-2.78V197.86a2.79,2.79,0,0,0-2.78-2.78h-3.23Z"/><rect class="cls-18" x="139.88" y="195.64" width="31.15" height="25.65"/><g class="cls-23"><polygon class="cls-14" points="171.85 203.71 169.71 205.2 171.85 206.81 171.85 203.71"/><path class="cls-14" d="M151.6,215.42l-.72-1.83-3,2.37.76,1.47,1.47-.14A2,2,0,0,1,151.6,215.42Z"/><path class="cls-14" d="M152.11,215.9a1.41,1.41,0,1,1-1.42,1.41A1.41,1.41,0,0,1,152.11,215.9Z"/><path class="cls-14" d="M165.68,202.29a2.32,2.32,0,0,1,.78-1.73L165,199l-4.86.3-4.56,4.27,3.72,4.8,5.2-2.39,1.74-2.13A2.33,2.33,0,0,1,165.68,202.29Z"/><path class="cls-14" d="M170.34,202.29a2.34,2.34,0,0,1-1.09,2l.18.41,2.43-1.51v-2.86l-1.66,1.18A2.36,2.36,0,0,1,170.34,202.29Z"/><path class="cls-14" d="M168,200.52a1.78,1.78,0,1,1-1.77,1.77A1.77,1.77,0,0,1,168,200.52Z"/><path class="cls-14" d="M153.83,197.52l-3.16-1.86-2.37.7L150,198l3.69.14A2.43,2.43,0,0,1,153.83,197.52Z"/><path class="cls-14" d="M153.69,198.75l-3-.12,2.47,2.4,1.23-1.11A2,2,0,0,1,153.69,198.75Z"/><path class="cls-14" d="M155.71,196.8a1.57,1.57,0,1,1-1.56,1.57A1.57,1.57,0,0,1,155.71,196.8Z"/><path class="cls-14" d="M138.48,202.07l1.79,1.13a1.41,1.41,0,0,1,.71-.33v-2.12l-2.49-1Z"/><path class="cls-14" d="M139.79,204.27a1.3,1.3,0,0,1,.11-.56l-1.42-.89v1.72l2.07,2.18.44-.31v-.75A1.41,1.41,0,0,1,139.79,204.27Z"/><path class="cls-14" d="M141.2,203.27a1,1,0,1,1-1,1A1,1,0,0,1,141.2,203.27Z"/><polygon class="cls-6" points="152.32 205.88 150.93 204.12 153.36 202.12 154.94 203.67 152.32 205.88"/><polygon class="cls-6" points="147.76 209.96 146.78 207.98 143.66 210.92 144.9 212.89 147.76 209.96"/><polygon class="cls-6" points="145.17 213.39 147.27 215.15 150.35 212.76 148.18 210.55 145.17 213.39"/><polygon class="cls-6" points="171.85 224.73 171.85 210.88 165.52 221.08 167.39 224.73 171.85 224.73"/><polygon class="cls-6" points="166.47 224.73 164.44 221.45 162.1 223.53 157.49 224.73 166.47 224.73"/><polygon class="cls-6" points="138.48 224.73 148.47 224.73 148.11 218.09 138.48 220.04 138.48 224.73"/><polygon class="cls-6" points="138.48 219.46 147.96 217.48 147.35 216.12 138.48 217.75 138.48 219.46"/><polygon class="cls-6" points="138.48 216.78 145.99 215.46 143.86 213.7 142.76 211.41 138.48 212.54 138.48 216.78"/><polygon class="cls-6" points="138.48 211.21 142.34 210.18 138.48 206.34 138.48 211.21"/><polygon class="cls-6" points="138.48 199.07 140.97 200.07 140.97 198.26 138.48 198.16 138.48 199.07"/><path class="cls-6" d="M151.41,213.29l.8,2.06a2,2,0,0,1,1.78,1.42l1.52-.16-1.08-4.82Z"/><path class="cls-6" d="M160.92,198.54l4.62-.22,1.47,1.87a2.36,2.36,0,0,1,1-.22,2.3,2.3,0,0,1,1.62.65l2.23-1.59v-7.67h-5.51Z"/><path class="cls-6" d="M148,195.18l2.63-.59,3.68,2.22a2.11,2.11,0,0,1,1.36-.51,2.08,2.08,0,0,1,1.27.44l3.38-5.38H147.2Z"/><path class="cls-6" d="M155.71,200.44a2.12,2.12,0,0,1-.44-.05l-1.53,1.32,1.47,1.45,4.59-4.27-2.1.05A2.07,2.07,0,0,1,155.71,200.44Z"/><path class="cls-6" d="M157.65,197.65a2.07,2.07,0,0,1,.13.62h2.34l5-6.91h-3.64Z"/><path class="cls-6" d="M141.62,205.62v1.12l-.64.44,2.45,2.59,2.51-2.27-3.68-2.31A1.4,1.4,0,0,1,141.62,205.62Z"/><path class="cls-6" d="M157.9,222A7.47,7.47,0,0,0,155,224.6l6.64-2,2.64-2.23-1.53-2.89A11.91,11.91,0,0,1,157.9,222Z"/><path class="cls-6" d="M156.88,219.93c2.07-1,4.25-3.22,4.42-5.14l-.14-.27-1.83,2-3.36.49-.94,4.08A9.39,9.39,0,0,1,156.88,219.93Z"/><path class="cls-6" d="M163.18,212.69a4.47,4.47,0,0,1,.41,1.87,1.62,1.62,0,0,1,0,.22,5.72,5.72,0,0,1-.45,1.92l1.7,3.07,7-11.66v-.26l-2.51-2.29-5.27,6.07Z"/><path class="cls-6" d="M160.92,214l-.48-1.24a4.76,4.76,0,0,0-.59-.44,25.05,25.05,0,0,0-3.16-1.6l-1.7.8,1.08,4.91L159,216Z"/><path class="cls-6" d="M154.33,221.79l1-4.67-1.28.18h0a2,2,0,0,1-3.86.52l-1.38.19.41,6.71h3.08A10.35,10.35,0,0,1,154.33,221.79Z"/><path class="cls-6" d="M155.41,210.17l-1.19-.52.43.9.79-.36Z"/><path class="cls-6" d="M152.69,206.41c1.15.6,2.4,1.14,3.63,1.68.64.28,1.27.55,1.87.83l.54-.25L155.21,204l-2.55,2.4Z"/><path class="cls-6" d="M148.41,206.4l-1.26,1.16,1.12,2.13,2.09-2A17.13,17.13,0,0,1,148.41,206.4Z"/><path class="cls-6" d="M151.5,205.76l-1-1.28-.39.36A14.74,14.74,0,0,0,151.5,205.76Z"/><path class="cls-6" d="M145.22,201.75a22.54,22.54,0,0,0-1.11-3.37l-2.51-.1v2.05l3.63,1.46S145.22,201.77,145.22,201.75Z"/><path class="cls-6" d="M147.43,201.21a5.42,5.42,0,0,0,.83,1.81l1.83.74,2.56-2.31-2.94-2.85-3.12-.12A26.07,26.07,0,0,1,147.43,201.21Z"/><path class="cls-6" d="M145.47,202.57,141.6,201v1.9a1.41,1.41,0,0,1,.95,1.72l3.87,2.43,1.34-1.2A8.37,8.37,0,0,1,145.47,202.57Z"/><path class="cls-6" d="M149.46,204.33l.11-.1-.39-.16Z"/><path class="cls-6" d="M141.85,194.37c-.09-.11-.18-.22-.26-.34v3.62l2.22.09A18.75,18.75,0,0,0,141.85,194.37Z"/><path class="cls-6" d="M146.34,197.84l2.69.1-1.42-1.37L146,197C146.12,197.3,146.23,197.57,146.34,197.84Z"/><path class="cls-6" d="M143.6,192.91l-.27-1.55h-1.05A14.51,14.51,0,0,1,143.6,192.91Z"/><path class="cls-6" d="M138.65,191.36h-.17v6.17l2.48.1v-4.34A10.34,10.34,0,0,0,138.65,191.36Z"/><path class="cls-6" d="M145.59,196.16l1.58-.35-1-4.45h-2.2l.65,3C144.94,194.92,145.28,195.53,145.59,196.16Z"/><path class="cls-6" d="M153.41,209.29c-.86-.4-1.72-.82-2.54-1.27l-2.27,2.14,2.26,2.27,3.27-1.6Z"/><path class="cls-6" d="M165.17,206.78l-5.45,2.52.17.44c.41.22.8.44,1.16.67a5.6,5.6,0,0,1,1.83,1.74l6-7-.2-.62a2.32,2.32,0,0,1-.7.1,2.2,2.2,0,0,1-.92-.19Z"/><path class="cls-15" d="M152.12,207a4,4,0,0,0-.89.64c1.42.78,2.94,1.44,4.4,2.08l.47.21a6,6,0,0,1,1.39-.68l-1.39-.61c-1.29-.56-2.6-1.13-3.81-1.77Z"/><path class="cls-15" d="M148.77,206a17.9,17.9,0,0,0,1.78,1.21,3.83,3.83,0,0,1,1-.79,16.89,16.89,0,0,1-1.93-1.26C149.31,205.42,149.06,205.72,148.77,206Z"/><path class="cls-15" d="M144.31,197.47a23.33,23.33,0,0,1,1.44,4.15,7.59,7.59,0,0,0,2.42,3.86c.29-.27.53-.58.82-.84a6.42,6.42,0,0,1-2.09-3.3,24.8,24.8,0,0,0-1.43-4.15A9.33,9.33,0,0,0,144.31,197.47Z"/><path class="cls-15" d="M143.78,196.41l.06,0a7.13,7.13,0,0,1,1.1-.29,21,21,0,0,0-1.56-2.58,15.57,15.57,0,0,0-1.93-2.2h-1.86A14.85,14.85,0,0,1,143.78,196.41Z"/><path class="cls-15" d="M154.8,223.77a10.38,10.38,0,0,1-.43-1.22,9.64,9.64,0,0,0-1.46,2.21h1.34a7.36,7.36,0,0,1,.59-.91A.2.2,0,0,1,154.8,223.77Z"/><path class="cls-15" d="M157.45,210.48a23.15,23.15,0,0,1,2.69,1.39,4.61,4.61,0,0,1,1.13,1,2.76,2.76,0,0,1,.92-.73,5.64,5.64,0,0,0-1.43-1.25,19.52,19.52,0,0,0-1.77-1C158.48,210.09,158,210.25,157.45,210.48Z"/><path class="cls-15" d="M161.73,213.64s0,0,0,0a2.86,2.86,0,0,1,.14,1c-.11,2.23-2.52,4.62-4.74,5.72a9,9,0,0,0-2.07,1.43,1.86,1.86,0,0,0,0,.42c.09.31.2.6.31.9a7.62,7.62,0,0,1,2.24-1.69c2.58-1.29,5.25-4,5.38-6.73a1.21,1.21,0,0,0,0-.19,3.93,3.93,0,0,0-.43-1.79A1.57,1.57,0,0,0,161.73,213.64Z"/></g><rect class="cls-19" x="139.87" y="195.62" width="2.09" height="25.66"/><path class="cls-18" d="M140.64,203.09h0l.09.2-.18,0-.13-.28v-.2h1.05v.23Z"/><path class="cls-18" d="M140.64,202.2h0l.09.2-.18,0-.13-.28V202h1.05v.24Z"/><path class="cls-18" d="M140.82,201.6a.14.14,0,0,1-.15-.15.14.14,0,0,1,.15-.14.14.14,0,0,1,.14.14A.14.14,0,0,1,140.82,201.6Zm.52,0a.15.15,0,0,1-.15-.15.15.15,0,0,1,.3,0A.14.14,0,0,1,141.34,201.6Z"/><path class="cls-18" d="M141.23,201.15a.68.68,0,0,0,.07-.25c0-.13-.07-.19-.15-.19s-.15.1-.15.21v.1h-.17v-.1c0-.08,0-.18-.12-.18s-.12,0-.12.15a.41.41,0,0,0,.07.22l-.18,0a.65.65,0,0,1-.08-.32c0-.23.12-.35.26-.35a.26.26,0,0,1,.25.19h0a.26.26,0,0,1,.26-.23c.18,0,.32.16.32.43a.65.65,0,0,1-.08.32Z"/><path class="cls-18" d="M140.94,199.51c.33,0,.55.13.55.4s-.25.39-.54.39-.55-.13-.55-.4S140.65,199.51,140.94,199.51Zm0,.55c.24,0,.35-.06.35-.16s-.12-.14-.36-.14-.35.05-.35.15S140.7,200.06,141,200.06Z"/><path class="cls-18" d="M141.47,198.58h-.08a.26.26,0,0,1,.1.23.24.24,0,0,1-.25.25c-.2,0-.3-.18-.3-.46h0s-.1,0-.1.14a.48.48,0,0,0,.06.22l-.16.05a.71.71,0,0,1-.07-.31.31.31,0,0,1,.34-.35h.47Zm-.37,0c0,.13,0,.23.12.23s.09,0,.09-.1a.13.13,0,0,0-.09-.13h-.12Z"/><path class="cls-18" d="M141.34,198.19a.14.14,0,0,1-.15-.14.15.15,0,0,1,.3,0A.14.14,0,0,1,141.34,198.19Z"/><path class="cls-18" d="M140.93,197.75h-.25v-.21h.11a.3.3,0,0,1-.13-.24.21.21,0,0,1,.14-.22h0a.26.26,0,0,1-.1-.11.24.24,0,0,1,0-.15c0-.15.11-.27.34-.27h.47v.24H141c-.11,0-.18,0-.18.12a.11.11,0,0,0,.09.11h.52v.24H141c-.1,0-.17,0-.17.12a.12.12,0,0,0,.09.11h.52v.24Z"/><path class="cls-18" d="M141.2,207.29a.29.29,0,0,1-.27-.19h0a.26.26,0,0,1-.23.15c-.18,0-.3-.16-.3-.37s.14-.35.27-.35a.26.26,0,0,1,.23.15h0a.28.28,0,0,1,.26-.19c.19,0,.32.16.32.41S141.34,207.29,141.2,207.29Zm0-.55c-.09,0-.15.07-.18.17a.18.18,0,0,0,.16.13.15.15,0,0,0,.15-.15A.14.14,0,0,0,141.19,206.74Zm-.5.28c.07,0,.11-.06.14-.15a.15.15,0,0,0-.13-.11.12.12,0,0,0-.13.13A.11.11,0,0,0,140.69,207Z"/><path class="cls-18" d="M141.47,205.93h-.25v.47h-.16l-.64-.4v-.3H141v-.12h.18v.12h.25Zm-.43,0h-.43l.19.1.23.14h0Z"/><path class="cls-18" d="M140.71,204.92a.3.3,0,0,1,.34.29.29.29,0,0,1-.32.29.3.3,0,0,1-.33-.3A.28.28,0,0,1,140.71,204.92Zm0,.39c.11,0,.19,0,.19-.11s-.07-.1-.19-.1-.19,0-.19.11S140.62,205.31,140.72,205.31Zm.77-.11-1.09-.61v-.13l1.09.6Zm-.34-1a.3.3,0,0,1,.34.29.29.29,0,0,1-.32.29.3.3,0,0,1-.33-.3A.28.28,0,0,1,141.15,204.16Zm0,.39c.11,0,.19,0,.19-.11s-.07-.1-.19-.1-.19,0-.19.1S141.06,204.55,141.16,204.55Z"/><rect class="cls-18" x="141.04" y="209.5" width="0.71" height="0.26"/><rect class="cls-18" x="140.76" y="209.14" width="0.99" height="0.26"/><rect class="cls-18" x="140.46" y="208.77" width="1.29" height="0.26"/><rect class="cls-18" x="140.18" y="208.41" width="1.56" height="0.26"/><rect class="cls-18" x="140.58" y="215.62" width="0.86" height="4.93"/><path class="cls-18" d="M141.54,211.23a.21.21,0,0,1,.21.21.21.21,0,0,1-.21.21.22.22,0,0,1-.21-.21A.21.21,0,0,1,141.54,211.23Z"/><path class="cls-18" d="M140.86,210.52a1,1,0,0,0,0,1.84c.08,0,.16,0,.17,0s0-.11-.09-.14a.85.85,0,0,1,0-1.52c.06,0,.11-.09.09-.14S140.94,210.48,140.86,210.52Z"/><path class="cls-18" d="M140.64,211.44a.69.69,0,0,0,.39.63.13.13,0,0,0,.12,0,.08.08,0,0,0,0,0v0a.14.14,0,0,0-.08-.11.52.52,0,0,1-.29-.47.51.51,0,0,1,.29-.47.14.14,0,0,0,.08-.11v0a.08.08,0,0,0,0,0,.11.11,0,0,0-.12,0A.69.69,0,0,0,140.64,211.44Z"/><path class="cls-18" d="M141.24,211a.47.47,0,0,0,0,.84s.07,0,.09,0a0,0,0,0,0,0,0v0a.1.1,0,0,0-.07-.08.32.32,0,0,1,0-.56.1.1,0,0,0,.07-.08,0,0,0,0,0,0,0,0,0,0,0,0,0,0S141.27,211,141.24,211Z"/><path class="cls-18" d="M140.39,214.75h.14a.86.86,0,0,0,.67-.16c.39-.23.35-.25.45-.39a1.59,1.59,0,0,0,.08-.21.58.58,0,0,0,0-.33s-.06-.05-.12-.05h-.16a.69.69,0,0,0-.19.07c-.11.05-.07.1,0,.18a.32.32,0,0,1,0,.21l-.49.34a.41.41,0,0,1-.12-.17c0-.05,0-.09-.08-.1h0a.15.15,0,0,0-.08,0c-.12.05-.37.24-.32.34A.47.47,0,0,0,140.39,214.75Z"/><path class="cls-22" d="M171.28,40.06,170,40.3c-.41.08-.9.18-.75,1a34.86,34.86,0,0,0,1.25,4.35c0,.09.07.18.1.27H113.77c-1.88,0-8.72,2.15-8.72,9.33V82.68c0,6.74,6.84,7.17,8.72,7.17h56.87c0,.14-.09.29-.15.42a35.88,35.88,0,0,0-1.25,4.35c-.15.82.34.91.75,1l1.29.25c2.56.49,2.88-3.2,2.88-3.2l.56-2.94c5.47-.48,18-2.75,18-13V59c0-9.33-12.56-12.18-18-12.89l-.55-2.87S173.84,39.57,171.28,40.06Zm-59.1,41.67c-.82-4.34-.82-23.2,0-27.54.18-1,.93-1.61,1.62-1.44l6.6,1.59V81.58l-6.6,1.58C113.11,83.33,112.36,82.7,112.18,81.73Zm6.57,5,5.19-4.29h12.47v4.29Zm19.87,0V82.49h19.76l5.18,4.29Zm51.89-10c0,3.87-2.46,6-5.56,7.23-.42-.17-.79-.46-.51-1.31a44.94,44.94,0,0,1,2.42-5.37c.67-1.24,1.22-2.8,3.65-3.26Zm0-17.73v2.72c-2.43-.47-3-2-3.65-3.26a45.13,45.13,0,0,1-2.42-5.38c-.28-.84.09-1.14.51-1.31C188.05,53.06,190.51,55.23,190.51,59.09ZM176,52.73c1.27,6.78,1.27,23.67,0,30.45-.28,1.52-1.45,2.51-2.53,2.25L163,82.9a2.11,2.11,0,0,1-1.52-2.46c.93-5,.93-20,0-25A2.11,2.11,0,0,1,163,53l10.53-2.53C174.59,50.22,175.76,51.22,176,52.73Zm-12.48-3.6-5.18,4.29H138.62V49.13Zm-27.15,0v4.29H123.94l-5.19-4.29Z"/><path class="cls-24" d="M66.46,2.24h-.12A23.4,23.4,0,0,0,43,25.73c0,2.82,1.4,9.42,4.58,15.06,4,7.06,17,30.29,18.83,32.49,0,0,0,.1.06.07s.07-.07.07-.07c1.84-2.21,14.7-25.54,18.78-32.53a33.86,33.86,0,0,0,4.54-15.07A23.41,23.41,0,0,0,66.46,2.24Z"/><path class="cls-25" d="M58,40.45V14.08h8.55a30.49,30.49,0,0,1,6.33.4,6.82,6.82,0,0,1,3.79,2.58,8.15,8.15,0,0,1,1.53,5.13,8.62,8.62,0,0,1-.88,4.09,7.24,7.24,0,0,1-2.24,2.6,7.73,7.73,0,0,1-2.76,1.25,30.49,30.49,0,0,1-5.52.38H63.31v9.94Zm5.32-21.91V26h2.92a13.58,13.58,0,0,0,4.21-.42,3.65,3.65,0,0,0,1.42-5.72,3.72,3.72,0,0,0-2.14-1.17,25.58,25.58,0,0,0-3.83-.18Z"/><g class="cls-26"><path class="cls-27" d="M66.63,5h.11A20.49,20.49,0,0,1,87.2,25c0-.2,0-.38,0-.54A20.49,20.49,0,0,0,66.74,3.93h-.11A20.5,20.5,0,0,0,46.2,24.49c0,.15,0,.32,0,.49A20.49,20.49,0,0,1,66.63,5Z"/></g><path class="cls-28" d="M49.43,27.87A18.23,18.23,0,0,1,80.65,15a18.27,18.27,0,1,0-27.4,24.09A18.29,18.29,0,0,1,49.43,27.87Z"/><g class="cls-29"><path class="cls-30" d="M67.1,27.27c-7.09,0-12.84-3.58-12.85-8s5.73-8,12.81-8,12.85,3.58,12.85,8S74.18,27.26,67.1,27.27Z"/></g></g></g></svg>