<?xml version="1.0" encoding="utf-8"?>
<!-- Generator: Adobe Illustrator 27.5.0, SVG Export Plug-In . SVG Version: 6.00 Build 0)  -->
<svg version="1.1" xmlns="http://www.w3.org/2000/svg" xmlns:xlink="http://www.w3.org/1999/xlink" x="0px" y="0px"
	 viewBox="0 0 500 500" style="enable-background:new 0 0 500 500;" xml:space="preserve">
<g id="BACKGROUND">
	<g>
		<rect style="fill:#76D8E3;" width="500" height="500"/>
		<g>
			<path style="fill:#40BECC;" d="M500,161.748V0h-5.957v137.927l-50.107,58.666h-88.885V84.057V0h-20v74.057H192.005V0h-20v196.593
				H23.569V0h-20v196.593H0v20h3.568v118.223H0v20h3.568V500h20v-40.052h127.768c5.523,0,10-4.478,10-10v-34.282h173.715V500h20
				V216.593h83.495V500h20V390.539H500v-20h-41.454V210.282L500,161.748z M192.005,94.057h143.047v102.536H192.005V94.057z
				 M142.736,354.482c-0.917,1.544-1.4,3.307-1.4,5.103v80.363H23.569V216.593h200.987L142.736,354.482z M161.337,391.667v-29.339
				l85.82-144.633c0.213-0.36,0.393-0.729,0.557-1.102h87.338v175.074H161.337z"/>
			<polygon style="fill:#40BECC;" points="261.8,227.667 201.8,342.333 320.466,342.333 320.466,227.667 			"/>
			<rect x="367.133" y="227.667" style="fill:#40BECC;" width="62.667" height="57.333"/>
			<rect x="367.133" y="24" style="fill:#40BECC;" width="62.667" height="67.281"/>
			<rect x="367.133" y="360.167" style="fill:#40BECC;" width="62.667" height="36.833"/>
			<rect x="367.133" y="408.667" style="fill:#40BECC;" width="62.667" height="74.833"/>
			<rect x="367.133" y="293" style="fill:#40BECC;" width="19.021" height="57.333"/>
			<rect x="394.966" y="293" style="fill:#40BECC;" width="34.833" height="57.333"/>
			<polygon style="fill:#40BECC;" points="474.466,137.235 474.466,104.912 364.966,104.912 364.966,185.5 434.807,185.5 			"/>
		</g>
	</g>
</g>
<g id="OBJECTS">
	<g>
		<polygon style="fill:#345191;" points="404.78,196.583 119.803,196.583 119.768,196.583 96.801,196.583 96.801,285.25 
			119.803,285.25 119.803,216.593 404.78,216.593 		"/>
		<g>
			<path style="fill:#472269;" d="M435.788,106.706c0-18.542-14.765-33.464-32.625-32.512
				c-15.725,0.838-28.468,14.158-29.342,30.663c-0.278,5.253,0.637,10.251,2.478,14.731h-0.025l0.135,0.255l22.581,42.567
				c2.527,4.764,9.054,4.764,11.581,0l22.581-42.568l0.135-0.255h-0.025C434.884,115.637,435.788,111.283,435.788,106.706z"/>
			<path style="fill:#893BA1;" d="M434.807,104.14c0-17.102-14.298-30.865-31.593-29.987c-15.228,0.773-27.568,13.058-28.413,28.282
				c-0.269,4.845,0.617,9.454,2.4,13.586h-0.025l0.131,0.235l21.866,39.261c2.447,4.394,8.767,4.394,11.214,0l21.866-39.261
				l0.131-0.235h-0.025C433.932,112.377,434.807,108.361,434.807,104.14z"/>
			<path style="fill:#D952E0;" d="M413.715,79.184c0,2.8-4.036,5.071-9.015,5.071c-4.979,0-9.015-2.27-9.015-5.071
				s4.036-5.071,9.015-5.071C409.679,74.113,413.715,76.383,413.715,79.184z"/>
			<g>
				<circle style="fill:#D952E0;" cx="404.78" cy="106.46" r="18.626"/>
				<circle style="fill:#FFCD19;" cx="404.78" cy="102.881" r="18.626"/>
				<path style="fill:#472269;" d="M404.78,87.444c9.749,0,17.744,7.492,18.553,17.031c0.045-0.526,0.073-1.057,0.073-1.595
					c0-10.287-8.339-18.626-18.626-18.626c-10.287,0-18.626,8.339-18.626,18.626c0,0.538,0.028,1.069,0.073,1.595
					C387.036,94.936,395.031,87.444,404.78,87.444z"/>
			</g>
		</g>
		<g>
			
				<ellipse transform="matrix(0.9272 -0.3746 0.3746 0.9272 -47.9196 166.6361)" style="fill:#C7593C;" cx="404.7" cy="206.588" rx="35.255" ry="35.255"/>
			
				<ellipse transform="matrix(0.9265 -0.3762 0.3762 0.9265 -47.9874 167.4113)" style="fill:#FF953D;" cx="404.7" cy="206.588" rx="28.255" ry="28.255"/>
			
				<ellipse transform="matrix(0.1613 -0.9869 0.9869 0.1613 135.5359 572.6638)" style="fill:#FFF15B;" cx="404.7" cy="206.588" rx="22.433" ry="22.433"/>
		</g>
	</g>
	<g>
		<path style="fill:#345191;" d="M410.366,360.167h-126.5h-14.833H230.52c-3.594,0-5.034,4.64-2.072,6.675l27.164,18.662
			c0.993,0.682,1.587,1.811,1.587,3.016v71.814c0,6.535,5.298,11.833,11.833,11.833h141.333c6.535,0,11.833-5.298,11.833-11.833V372
			C422.2,365.465,416.902,360.167,410.366,360.167z"/>
		<g>
			<path style="fill:#FFFFFF;" d="M387.294,391.667h-89.249c-2.277,0-4.122,1.846-4.122,4.122s1.846,4.122,4.122,4.122h89.249
				c2.277,0,4.122-1.846,4.122-4.122S389.57,391.667,387.294,391.667z"/>
			<path style="fill:#FFFFFF;" d="M387.294,413.975h-89.249c-2.277,0-4.122,1.846-4.122,4.122s1.846,4.122,4.122,4.122h89.249
				c2.277,0,4.122-1.846,4.122-4.122S389.57,413.975,387.294,413.975z"/>
			<path style="fill:#FFFFFF;" d="M387.294,436.284h-89.249c-2.277,0-4.122,1.846-4.122,4.122s1.846,4.122,4.122,4.122h89.249
				c2.277,0,4.122-1.846,4.122-4.122S389.57,436.284,387.294,436.284z"/>
		</g>
	</g>
	<g>
		<defs>
			<rect id="SVGID_1_" width="500" height="500"/>
		</defs>
		<clipPath id="SVGID_00000174595995507600671110000008438422889292503447_">
			<use xlink:href="#SVGID_1_"  style="overflow:visible;"/>
		</clipPath>
		<g style="clip-path:url(#SVGID_00000174595995507600671110000008438422889292503447_);">
			<path style="fill:#E8E6ED;" d="M40.898,533.278c-7.597,0-13.778-6.181-13.778-13.778V280.398c0-7.597,6.181-13.778,13.778-13.778
				h122.453c7.597,0,13.778,6.181,13.778,13.778V519.5c0,7.597-6.181,13.778-13.778,13.778H40.898z"/>
			<path style="fill:#212A45;" d="M40.898,539.565c-11.064,0-20.065-9.001-20.065-20.065V280.398
				c0-11.064,9.001-20.064,20.065-20.064h122.453c11.063,0,20.065,9.001,20.065,20.064V519.5c0,11.064-9.001,20.065-20.065,20.065
				H40.898z"/>
			<path style="fill:#364470;" d="M114.779,516.371H89.47c-2.775,0-5.024,1.368-5.024,3.056v11.094c0,1.688,2.25,3.056,5.024,3.056
				h25.309c2.775,0,5.025-1.368,5.025-3.056v-11.094C119.803,517.74,117.554,516.371,114.779,516.371z"/>
			<path style="fill:#A1C5F0;" d="M40.898,510.622c-7.597,0-13.778-6.181-13.778-13.778V280.398c0-7.597,6.181-13.778,13.778-13.778
				h122.453c7.597,0,13.778,6.181,13.778,13.778v216.446c0,7.597-6.181,13.778-13.778,13.778H40.898z"/>
			<path style="fill:#304054;" d="M40.147,266.658v243.927c0.25,0.013,0.497,0.038,0.751,0.038h122.453
				c0.253,0,0.501-0.025,0.751-0.038V266.658c-0.25-0.014-0.497-0.038-0.751-0.038H40.898
				C40.645,266.62,40.397,266.644,40.147,266.658z"/>
			<path style="fill:#212A45;" d="M68.268,266.62l5.003,6.112c1.666,2.035,4.158,3.216,6.788,3.216h44.129
				c2.63,0,5.122-1.18,6.788-3.216l5.004-6.112H68.268z"/>
			<g>
				<defs>
					<path id="SVGID_00000005229109773100585010000002543363278283745429_" d="M40.898,510.622c-7.597,0-13.778-6.181-13.778-13.778
						V280.398c0-7.597,6.181-13.778,13.778-13.778h122.453c7.597,0,13.778,6.181,13.778,13.778v216.446
						c0,7.597-6.181,13.778-13.778,13.778H40.898z"/>
				</defs>
				<clipPath id="SVGID_00000071558187816994497750000013706703760343602827_">
					<use xlink:href="#SVGID_00000005229109773100585010000002543363278283745429_"  style="overflow:visible;"/>
				</clipPath>
				<g style="clip-path:url(#SVGID_00000071558187816994497750000013706703760343602827_);">
					<path style="fill:#F28C24;" d="M149.902,428.457c0,0,3.781-92.161,0-105.419c-3.781-13.258-9.624-25.223-47.777-25.223
						c-38.153,0-43.996,11.965-47.777,25.223c-3.781,13.258,0,105.419,0,105.419v79.226c0,0-6.982,34.277,47.326,30.72
						c54.308,3.557,48.228-30.72,48.228-30.72V428.457z"/>
					<path style="fill:#FFB727;" d="M109.278,534.296c-2.329,0-4.791-0.084-7.318-0.249l-0.285-0.019l-0.285,0.019
						c-2.528,0.165-4.988,0.249-7.312,0.249c-15.146,0-25.657-3.421-31.241-10.166c-5.767-6.968-4.272-15.254-4.206-15.603
						l0.088-0.431l-0.005-0.413v-79.316l-0.004-0.089c-1.508-36.764-2.796-94.812-0.163-104.043
						c1.97-6.909,4.121-11.61,9.288-15.193c6.658-4.617,17.874-6.861,34.291-6.861s27.633,2.244,34.29,6.861
						c5.167,3.583,7.318,8.284,9.288,15.193c2.633,9.232,1.345,67.279-0.163,104.043l-0.004,0.089v79.7l0.067,0.378
						c0.052,0.321,1.325,8.58-4.615,15.574c-5.792,6.819-16.461,10.276-31.71,10.276
						C109.278,534.296,109.278,534.296,109.278,534.296z"/>
					<path style="fill:#FFD942;" d="M82.126,413.791L82.126,413.791l0,15.278h0c13.246,1.546,26.751,1.546,39.997,0l0,0v-15.278l0,0
						C108.877,412.245,95.372,412.245,82.126,413.791z"/>
					<path style="fill:#FFD942;" d="M105.344,352.384h30.91c0,0,4.123-4.366,2.183-10.186c-1.199-3.595-3.692-21.807-5.423-35.209
						c-6.831-3.23-16.936-4.808-30.698-4.808c-14.039,0-24.271,1.643-31.106,5.005c-1.731,13.383-4.205,31.434-5.398,35.012
						c-1.94,5.821,2.183,10.186,2.183,10.186h30.91H105.344z"/>
					<g>
						<path style="fill:#FFFFFF;" d="M58.98,332.739c0,0-2.801-11.619,4.845-20.543c7.646-8.924,16.216-8.142,16.216-8.142
							S60.557,321.098,58.98,332.739z"/>
						<path style="fill:#FFFFFF;" d="M145.269,332.739c0,0,2.801-11.619-4.845-20.543c-7.646-8.924-16.216-8.142-16.216-8.142
							S143.693,321.098,145.269,332.739z"/>
					</g>
					<path style="fill:#4F3536;" d="M69.065,402.264c0,0,32.7-6.467,65.037,0c0,0,8.731-47.536,6.791-49.476
						c-1.94-1.94-43.792-14.946-77.447,0C61.314,353.735,69.065,402.264,69.065,402.264z"/>
					<g>
						<path style="fill:#4F3536;" d="M144.074,488.442c0-41.957,4.123-133.148,2.183-133.391c-1.94-0.242-1.32,3.209-4.838,17.518
							c-3.374,13.721-10.441,69.065-5.106,98.411c1.112,6.115,0.456,25.173,5.455,24.253
							C143.306,494.95,144.074,490.235,144.074,488.442z"/>
						<path style="fill:#4F3536;" d="M60.175,488.442c0-41.957-4.123-133.148-2.183-133.391c1.94-0.242,1.32,3.209,4.838,17.518
							c3.374,13.721,10.441,69.065,5.106,98.411c-1.112,6.115-0.456,25.173-5.455,24.253
							C60.943,494.95,60.175,490.235,60.175,488.442z"/>
					</g>
					<path style="fill:#4F3536;" d="M72.9,490.625l-1.94,31.771c0,0,21.784,7.276,62.33,0l-1.698-31.771H72.9z"/>
					<g>
						<path style="fill:#FFB727;" d="M147.704,375.909v8.408c0,0,8.976,5.012,10.695,3.557
							C160.118,386.419,158.972,376.591,147.704,375.909z"/>
						<path style="fill:#FFB727;" d="M56.546,375.909v8.408c0,0-8.976,5.012-10.695,3.557
							C44.132,386.419,45.278,376.591,56.546,375.909z"/>
					</g>
				</g>
				<g style="clip-path:url(#SVGID_00000071558187816994497750000013706703760343602827_);">
					<rect x="5.187" y="453.067" style="fill:#FFFFFF;" width="193.875" height="82.368"/>
					<g>
						<rect x="35.881" y="463.557" style="fill:#D1DFF0;" width="25.922" height="25.922"/>
						<rect x="69.927" y="463.557" style="fill:#D1DFF0;" width="98.441" height="14.375"/>
						<rect x="69.927" y="482.292" style="fill:#D1DFF0;" width="53.372" height="7.188"/>
						<rect x="35.881" y="495.113" style="fill:#D1DFF0;" width="132.488" height="7.188"/>
						<rect x="131.703" y="482.292" style="fill:#D1DFF0;" width="36.665" height="7.188"/>
					</g>
				</g>
			</g>
		</g>
	</g>
</g>
</svg>
