<?xml version="1.0" encoding="utf-8"?>
<!-- Generator: Adobe Illustrator 27.5.0, SVG Export Plug-In . SVG Version: 6.00 Build 0)  -->
<svg version="1.1" xmlns="http://www.w3.org/2000/svg" xmlns:xlink="http://www.w3.org/1999/xlink" x="0px" y="0px"
	 viewBox="0 0 3710 3710" style="enable-background:new 0 0 3710 3710;" xml:space="preserve">
<g id="Background">
	<g>
		<g>
			<rect style="fill:#FFFFFF;" width="3710" height="3710"/>
		</g>
	</g>
</g>
<g id="Illustration">
	<g>
		<path style="fill:#F4F7FA;" d="M3190.967,1624.188c-54.469-369.382-98.197-624.658-294.889-764.541
			c-331.771-235.948-702.293,147.086-1172.26-109.935c-231.394-126.547-240.067-273.268-436.038-292.743
			c-346.716-34.455-630.654,394.235-655.261,430.999c-149.512,223.374-199.454,495.747-138.843,755.419
			c39.365,168.661,65.968,343.217,58.666,516.527c-12.706,301.627-5.395,583.174,277.141,763.056
			c252.269,160.615,569.758,302.272,872.645,327.082c205.839,16.863,436.677-10.425,635.067-65.946
			C3348.24,2901.143,3265.858,2132.068,3190.967,1624.188z"/>
		<g>
			<g>
				<defs>
					<path id="SVGID_1_" d="M1898.218,2709.08l103.82,175.788c0,0,109.719-20.167,147.916-100.831
						c77.933-164.58,216.638-84.837,279.73-60.128c95.147,37.263,195.245,28.604,169.036-93.329
						c-26.21-121.934,192.143-112.805,337.132-30.479c141.882,80.561,366.959-125.164,75.883-327.725
						c-173.83-120.969-334.281,8.82-430.889,55.1c-96.608,46.279-184.925-85.895-269.554,27.174
						c-72.289,96.581-97.373,213.782-197.507,194.784C2013.65,2530.437,1936.2,2568.096,1898.218,2709.08z"/>
				</defs>
				
					<linearGradient id="SVGID_00000151512998206820408230000010587991866383238288_" gradientUnits="userSpaceOnUse" x1="2357.1477" y1="2404.0798" x2="3525.6113" y2="2404.0798" gradientTransform="matrix(0.9716 0.2365 -0.2365 0.9716 242.9519 -456.8691)">
					<stop  offset="0" style="stop-color:#FFC444"/>
					<stop  offset="0.9964" style="stop-color:#F36F56"/>
				</linearGradient>
				
					<use xlink:href="#SVGID_1_"  style="overflow:visible;fill:url(#SVGID_00000151512998206820408230000010587991866383238288_);"/>
				<clipPath id="SVGID_00000019670923788400995450000014882867070705817476_">
					<use xlink:href="#SVGID_1_"  style="overflow:visible;"/>
				</clipPath>
				
					<linearGradient id="SVGID_00000113339342359717428190000006843180528827239811_" gradientUnits="userSpaceOnUse" x1="8523.6514" y1="-83.6683" x2="8117.1973" y2="1071.5179" gradientTransform="matrix(0.5085 0.861 -0.861 0.5085 -1301.2435 -4880.3965)">
					<stop  offset="0" style="stop-color:#FFC444"/>
					<stop  offset="0.9964" style="stop-color:#F36F56"/>
				</linearGradient>
				
					<path style="clip-path:url(#SVGID_00000019670923788400995450000014882867070705817476_);fill:url(#SVGID_00000113339342359717428190000006843180528827239811_);" d="
					M1898.218,2709.08l103.82,175.788c0,0,109.719-20.167,147.916-100.831c77.933-164.58,216.638-84.837,279.73-60.128
					c95.147,37.263,183.243,26.417,179.481-83.748c-4.256-124.646,181.698-122.385,326.687-40.06
					c141.882,80.561,366.959-125.164,75.883-327.725c-173.83-120.969-334.281,8.82-430.889,55.1
					c-96.608,46.279-184.925-85.895-269.554,27.174c-72.289,96.581-97.373,213.782-197.507,194.784
					C2013.65,2530.437,1936.2,2568.096,1898.218,2709.08z"/>
				<g style="opacity:0.5;clip-path:url(#SVGID_00000019670923788400995450000014882867070705817476_);">
					<path style="fill:#BEB8F2;" d="M1926.837,2794.797l2.825,3.255c2.016-1.75,204.497-176.198,457.369-288.609
						c232.962-103.563,557.61-174.131,781.263,77.798l3.223-2.861c-99.559-112.148-227.055-170.815-378.946-174.375
						c-121.335-2.844-258.394,29.298-407.371,95.534C2131.758,2618.223,1928.858,2793.045,1926.837,2794.797z"/>
					<path style="fill:#BEB8F2;" d="M2729.035,2411.258l2.635,3.412c113.557-87.649,315.245-143.782,317.269-144.339l-1.141-4.156
						C3045.765,2266.735,2843.258,2323.096,2729.035,2411.258z"/>
					<path style="fill:#BEB8F2;" d="M2830.175,2416.404c151.614,78.958,183.201,217.732,183.502,219.124l4.212-0.91
						c-0.303-1.414-32.25-142.11-185.722-222.036L2830.175,2416.404z"/>
					<path style="fill:#BEB8F2;" d="M2225.716,2591.941c199.471-61.841,382.925,150.782,384.539,153.003l3.642-2.298
						c-1.378-2.33-188.214-217.213-389.457-154.821L2225.716,2591.941z"/>
					<path style="fill:#BEB8F2;" d="M2299.178,2547.009l2.904,3.188c98.541-89.713,103.87-257.226,103.912-258.909l-4.308-0.109
						C2401.644,2292.844,2396.346,2458.55,2299.178,2547.009z"/>
					<path style="fill:#BEB8F2;" d="M1962.128,2771.303c71.261-34.868,182.607,30.513,183.723,31.176l2.204-3.702
						c-4.637-2.763-114.459-67.243-187.822-31.344L1962.128,2771.303z"/>
					<path style="fill:#BEB8F2;" d="M2009.522,2729.348l2.786,3.289c47.872-40.534,59.653-156.04,63.523-193.995
						c0.547-5.364,1.02-9.994,1.266-10.803l-4.104-1.316c-0.365,1.135-0.687,4.213-1.45,11.681
						C2067.716,2575.732,2056.068,2689.936,2009.522,2729.348z"/>
				</g>
			</g>
			<g>
				
					<linearGradient id="SVGID_00000018933457249213542330000009190789080028436916_" gradientUnits="userSpaceOnUse" x1="-3489.3918" y1="2444.2468" x2="-2977.6689" y2="3788.8423" gradientTransform="matrix(-0.9767 -0.2146 -0.2146 0.9767 -64.6889 -1517.3704)">
					<stop  offset="0.0036" style="stop-color:#E38DDD"/>
					<stop  offset="1" style="stop-color:#9571F6"/>
				</linearGradient>
				<path style="fill:url(#SVGID_00000018933457249213542330000009190789080028436916_);" d="M2403.62,2572.312
					c17.336,52.416-12.192,97.076-38.622,126.046c-5.238-0.838-8.465,0.016-13.918,0.342c-49.222,2.94-70.848-6.293-119.822-11.055
					c-10.542-1.025-40.568-13.443-52.51-19.305l-22.091-11.283c0,0-24.823-124.619,44.109-146.477
					c68.932-21.858,60.371-143.205,63.758-208.05c2.08-39.819,15.787-57.364,18.9-71.873
					c32.955-153.583-6.711-206.676,34.685-250.035c45.698-47.866,107.117,3.135,159.58-46.309
					c59.24-55.832,20.698-158.348,88.565-198.656c11.635-6.911,23.779-13.695,41.673-16.08c44.168-5.886,74.717,24.02,110.218-6.11
					c71.358-60.561,174.856-69.371,224.456,13.352c48.952,81.643-42.211,212.896-235.743,298.451
					c-130.696,76.535-136.485,104.975-136.859,176.508c-0.264,50.104,32.215,186.124-45.995,225.323
					C2445.794,2466.3,2383.8,2512.391,2403.62,2572.312z"/>
				<g>
					<defs>
						<path id="SVGID_00000155137911429370565480000011355213414174724743_" d="M2328.567,2732.876l-168.606-70.892
							c0,0-28.128-129.547,40.804-151.405c68.932-21.858,60.371-143.205,63.759-208.05c9.191-175.941,207.62-126.914,238.69-351.252
							c8.264-59.667,2.678-177.013,63.039-215.622c68.769-43.986,106.235,16.557,151.89-22.19
							c71.358-60.56,174.857-69.37,224.456,13.352c48.952,81.643-42.21,212.896-235.741,298.451
							c-130.697,76.535-136.485,104.975-136.86,176.507c-0.263,50.104,32.214,186.124-45.995,225.323
							c-78.21,39.199-140.203,85.29-120.384,145.211C2433.775,2663.488,2328.567,2732.876,2328.567,2732.876z"/>
					</defs>
					<clipPath id="SVGID_00000095321230670659095720000011641672954995419537_">
						<use xlink:href="#SVGID_00000155137911429370565480000011355213414174724743_"  style="overflow:visible;"/>
					</clipPath>
					<g style="opacity:0.5;clip-path:url(#SVGID_00000095321230670659095720000011641672954995419537_);">
						<path style="fill:#FCFDFE;" d="M2256.271,2693.659l-3.485-1c5.343-19.293,10.989-38.677,16.779-57.613
							c42.883-140.199,98.32-270.926,164.775-388.552c56.31-99.666,121.299-191.342,193.161-272.481
							c57.792-65.251,120.323-124.073,185.856-174.831c46.07-35.681,93.136-67.041,139.893-93.203
							c8.147-4.561,16.772-8.783,25.114-12.866c11.114-5.44,22.606-11.065,33.055-17.537l2.075,2.859
							c-10.592,6.56-22.162,12.224-33.351,17.702c-8.301,4.062-16.882,8.264-24.948,12.778
							c-46.61,26.08-93.535,57.345-139.475,92.927c-65.371,50.632-127.753,109.315-185.411,174.416
							c-71.715,80.972-136.573,172.465-192.775,271.939c-66.344,117.426-121.691,247.945-164.506,387.928
							C2267.245,2655.034,2261.607,2674.39,2256.271,2693.659z"/>
						<path style="fill:#FCFDFE;" d="M2547.402,2078.562l-3.038-1.952c82.909-118.872,58.69-367.897,58.435-370.398l3.583-0.164
							C2606.638,1708.561,2630.975,1958.738,2547.402,2078.562z"/>
						<path style="fill:#FCFDFE;" d="M2347.439,2431.651l-3.241-1.617c45.98-87.451,242.018-128.34,243.993-128.743l0.921,3.315
							C2587.154,2305.006,2392.7,2345.566,2347.439,2431.651z"/>
						<path style="fill:#FCFDFE;" d="M2326.019,2483.601l-3.466-1.067c18.553-61.672,8.347-156.695-28.742-267.561
							c-1.865-5.575-1.865-5.575-1.69-6.189l3.479,1.027l-1.74-0.513l1.779-0.128c0.079,0.383,0.783,2.488,1.601,4.927
							C2334.539,2325.596,2344.761,2421.307,2326.019,2483.601z"/>
						<path style="fill:#FCFDFE;" d="M2266.559,2658.604l-3.044-1.941c40.528-58.645,152.495-65.88,153.62-65.947l0.396,3.383
							C2416.421,2594.164,2306.159,2601.302,2266.559,2658.604z"/>
						<path style="fill:#FCFDFE;" d="M2250.839,2693.023c-5.836-57.638-29.379-116.373-71.974-179.56l3.014-1.718
							c42.921,63.673,66.65,122.917,72.543,181.116L2250.839,2693.023z"/>
						<path style="fill:#FCFDFE;" d="M2777.677,1832.356l-2.923-2.104c50.135-63.493,86.602-141.856,98.585-167.606
							c2.901-6.233,3.93-8.424,4.432-9.122l3.009,1.992c-0.376,0.538-2.034,4.101-4.133,8.613
							C2864.625,1689.961,2828.042,1768.572,2777.677,1832.356z"/>
						<path style="fill:#FCFDFE;" d="M2679.348,1923.495l-2.177-2.794c64.235-43.012,224.011-14.807,230.781-13.585l-0.514,3.328
							C2905.796,1910.148,2742.384,1881.287,2679.348,1923.495z"/>
					</g>
				</g>
			</g>
			<g>
				
					<linearGradient id="SVGID_00000103258351352309236920000009091694532226133935_" gradientUnits="userSpaceOnUse" x1="1876.5397" y1="1977.5767" x2="2509.8623" y2="3020.1887" gradientTransform="matrix(-0.9488 -0.3159 -0.3159 0.9488 5427.0459 711.5431)">
					<stop  offset="0" style="stop-color:#FF9085"/>
					<stop  offset="1" style="stop-color:#FB6FBB"/>
				</linearGradient>
				<path style="fill:url(#SVGID_00000103258351352309236920000009091694532226133935_);" d="M2280.619,2852.974
					c-11.31-5.413-94.156,84.585-102.632-4.808c-2.117-22.333,10.475-92.982-75.97-125.099
					c-16.78-6.235-33.561-12.471-50.341-18.706c-1.959-42.99,4.159-83.871,60.527-81.392
					c87.538,3.85,131.903-129.667,124.888-184.44c-8.68-67.792-25.545-225.9,109.787-221.998
					c112.664,3.248,185.705,27.523,232.685-95.893c46.981-123.417,144.105-177.903,261.883-130.536
					c123.943,49.846,278.15-75.56,364.83,12.284c151.032,153.068-100.136,376.032-345.029,383.482
					c-244.891,7.451-142.729,124.363-169.359,229.285c-3.024,9.6-8.453,24.249-18.142,40.324
					c-59.656,98.965-177.45,80.354-286.38,141.458C2238.809,2880.267,2299.674,2862.094,2280.619,2852.974z"/>
				<g>
					<defs>
						<path id="SVGID_00000021108822524705985680000016252112183667940525_" d="M2326.347,2831.18l-274.835-93.511
							c-3.995-42.38-2.272-117.469,60.692-114.699c87.538,3.849,131.903-129.668,124.889-184.441
							c-8.681-67.792-25.545-225.899,109.788-221.998c112.664,3.248,185.704,27.523,232.684-95.894
							c46.981-123.417,144.106-177.902,261.883-130.535c123.942,49.847,278.149-75.561,364.828,12.285
							c151.033,153.067-100.135,376.031-345.027,383.481c-244.892,7.45-142.73,124.363-169.36,229.285
							c-36.355,143.242-226.953,46.784-297.264,84.457C2339.504,2729.143,2328.306,2791.429,2326.347,2831.18z"/>
					</defs>
					<clipPath id="SVGID_00000103237031522154075590000013229539678864795784_">
						<use xlink:href="#SVGID_00000021108822524705985680000016252112183667940525_"  style="overflow:visible;"/>
					</clipPath>
					<g style="opacity:0.5;clip-path:url(#SVGID_00000103237031522154075590000013229539678864795784_);">
						<path style="fill:#FCFDFE;" d="M2210.29,2746.111l-5.489-3.079c216.037-376.931,625.744-642.724,1069.237-693.654l1.007,5.964
							C2833.422,2106.057,2425.43,2370.745,2210.29,2746.111z"/>
						<path style="fill:#FCFDFE;" d="M2346.813,2551.123l-5.964-2c52.092-162.692-53.988-338.738-55.066-340.497l5.332-2.879
							C2292.208,2207.528,2399.726,2385.866,2346.813,2551.123z"/>
						<path style="fill:#FCFDFE;" d="M2252.045,2677.9l-4.387-4.45c128.961-117.48,451.17-32.097,454.409-31.22l-1.434,5.777
							C2697.428,2647.141,2378.554,2562.654,2252.045,2677.9z"/>
						<path style="fill:#FCFDFE;" d="M2671.454,2269.787l-4.752-4.089c93.277-101.635,69.905-314.041,69.658-316.175l6.193-0.405
							C2742.804,1951.279,2766.454,2166.275,2671.454,2269.787z"/>
						<path style="fill:#FCFDFE;" d="M2922.85,2142.578l-1.58-5.874c158.772-33.173,352.16,79.493,354.096,80.639l-3.08,5.084
							C3270.375,2221.295,3079.149,2109.919,2922.85,2142.578z"/>
					</g>
				</g>
			</g>
		</g>
		<g>
			
				<linearGradient id="SVGID_00000036218682462372560860000013140228773513234340_" gradientUnits="userSpaceOnUse" x1="2695.9475" y1="4712.3867" x2="1073.1042" y2="6185.0991" gradientTransform="matrix(0 -1 1 0 -3755.802 3738.6064)">
				<stop  offset="0.0036" style="stop-color:#26264F"/>
				<stop  offset="1" style="stop-color:#444B8C"/>
			</linearGradient>
			<path style="fill:url(#SVGID_00000036218682462372560860000013140228773513234340_);" d="M2532.626,2825.946
				c0,45.01-31.935,83.493-71.314,85.792l-1519.075,88.664c-45.115,2.634-81.947-34.603-81.947-83.012V738.277
				c0-48.412,36.832-86.305,81.947-84.477l1519.075,61.561c39.379,1.596,71.314,39.51,71.314,84.521V2825.946z"/>
			
				<linearGradient id="SVGID_00000140709618918887138260000010371213653392099250_" gradientUnits="userSpaceOnUse" x1="937.4284" y1="1828.4052" x2="2788.2205" y2="1776.8352">
				<stop  offset="0" style="stop-color:#444B8C"/>
				<stop  offset="0.9964" style="stop-color:#26264F"/>
			</linearGradient>
			<path style="fill:url(#SVGID_00000140709618918887138260000010371213653392099250_);" d="M2577.226,2825.946
				c0,45.01-31.935,83.493-71.314,85.792l-1519.075,88.664c-45.115,2.634-81.947-34.603-81.947-83.012V738.277
				c0-48.412,36.832-86.305,81.947-84.477l1519.075,61.561c39.379,1.596,71.314,39.51,71.314,84.521V2825.946z"/>
			
				<linearGradient id="SVGID_00000053522037204697635070000018056395521977305787_" gradientUnits="userSpaceOnUse" x1="1469.9855" y1="6003.0654" x2="2386.7979" y2="4882.5171" gradientTransform="matrix(0 -1 1 0 -3755.802 3738.6064)">
				<stop  offset="0" style="stop-color:#444B8C"/>
				<stop  offset="0.9964" style="stop-color:#26264F"/>
			</linearGradient>
			<path style="fill:url(#SVGID_00000053522037204697635070000018056395521977305787_);" d="M943.108,739.684v2175.614
				c0,25.875,19.599,45.741,43.73,44.374l1201.425-68.062l317.65-17.995c21.1-1.195,38.174-21.726,38.174-45.858V798.661
				c0-24.133-17.074-44.359-38.174-45.177l-329.118-12.772L986.838,694.53C962.707,693.593,943.108,713.809,943.108,739.684z"/>
			<path style="fill:#FEC045;" d="M2523.033,2733.927c0,8.977-7.196,16.647-16.043,17.1L985.607,2828.82
				c-10.11,0.517-18.344-6.876-18.344-16.483V739.727c0-9.606,8.234-17.113,18.344-16.733L2506.99,780.21
				c8.848,0.333,16.043,7.907,16.043,16.884V2733.927z"/>
			
				<linearGradient id="SVGID_00000127731118953813322350000005220817633565167016_" gradientUnits="userSpaceOnUse" x1="1785.0176" y1="2735.5127" x2="1754.4138" y2="2968.5713">
				<stop  offset="0" style="stop-color:#444B8C"/>
				<stop  offset="0.9964" style="stop-color:#26264F"/>
			</linearGradient>
			<path style="fill:url(#SVGID_00000127731118953813322350000005220817633565167016_);" d="M1924.914,2868.809l-308.926,16.99
				c-16.517,0.908-29.923-10.544-29.923-25.581v-1.129c0-15.036,13.407-27.931,29.923-28.8l308.926-16.247
				c16.055-0.844,29.053,10.468,29.053,25.265v1.112C1953.968,2855.215,1940.969,2867.926,1924.914,2868.809z"/>
			
				<linearGradient id="SVGID_00000031896220123875535570000014338614977508906379_" gradientUnits="userSpaceOnUse" x1="1763.6353" y1="716.3365" x2="1780.9678" y2="735.436">
				<stop  offset="0" style="stop-color:#FF9085"/>
				<stop  offset="1" style="stop-color:#FB6FBB"/>
			</linearGradient>
			<path style="fill:url(#SVGID_00000031896220123875535570000014338614977508906379_);" d="M1787.302,725.595
				c0,7.999-7.076,14.214-15.812,13.88c-8.742-0.334-15.833-7.098-15.833-15.108c0-8.01,7.091-14.224,15.833-13.88
				C1780.226,710.832,1787.302,717.596,1787.302,725.595z"/>
			<g>
				<defs>
					<path id="SVGID_00000043458343433530771370000012952293092329106106_" d="M2523.033,2733.927c0,8.977-7.196,16.647-16.043,17.1
						L985.607,2828.82c-10.11,0.517-18.344-6.876-18.344-16.483V739.727c0-9.606,8.234-17.113,18.344-16.733L2506.99,780.21
						c8.848,0.333,16.043,7.907,16.043,16.884V2733.927z"/>
				</defs>
				<clipPath id="SVGID_00000011721592123962135360000013259457659154574265_">
					<use xlink:href="#SVGID_00000043458343433530771370000012952293092329106106_"  style="overflow:visible;"/>
				</clipPath>
				<path style="clip-path:url(#SVGID_00000011721592123962135360000013259457659154574265_);fill:#FFFFFF;" d="M2627.002,1360.275
					h-402.958c-1.405-330.702-2.563-803.294-0.278-846.837c-0.116,2.215-0.901,13.913-4.953,26.706l-56.259-76.872
					c-6.073,19.176-6.258,35.895-6.75,80.577c-0.28,25.357-0.474,61.779-0.579,108.258c-0.176,77.79-0.11,185.187,0.199,319.21
					c0.523,227.984,1.581,457.28,1.591,459.57l0.322,69.265h144.439v491.032h-276.304l-173.28-480.09h-248.8l331.265-793.951
					l-50.889-91.61l-369.488,885.561h-168.02c0.24-85.702,0.634-238.045,0.87-389.753c0.208-133.996,0.253-241.279,0.134-318.87
					c-0.238-154.736-0.675-156.551-3.099-166.627l-32.039,33.274c-1.283-5.335-1.564-9.766-1.608-10.6
					c1.684,32.484,0.932,503.949-0.074,852.577h-183.007c-33.955-256.87-114.229-863.774-116.95-880.729l-63.885,44.232
					l-0.157-1.012c3.499,23.823,75.385,566.806,122.849,925.963l6.797,51.425h379.825l-232.591,557.457H733.537v139.878h520.537
					l290.954-697.335h273.484l122.793,340.212h-331.533v996.956h35.819v-922.552h322.568l304.298,843.087l53.881-83.906
					l-274.013-759.181h285.268v-565.435h289.408V1360.275z"/>
				
					<linearGradient id="SVGID_00000066512122884619471750000002388224905796298942_" gradientUnits="userSpaceOnUse" x1="889.3082" y1="599.0444" x2="2258.2637" y2="2107.5535">
					<stop  offset="0" style="stop-color:#AA80F9"/>
					<stop  offset="0.9964" style="stop-color:#6165D7"/>
				</linearGradient>
				
					<path style="clip-path:url(#SVGID_00000011721592123962135360000013259457659154574265_);fill:url(#SVGID_00000066512122884619471750000002388224905796298942_);" d="
					M2315.317,2048.653h-316.06c-8.434,0-15.994-5.207-19.003-13.09l-172.207-451.486h-710.762c-10.226,0-18.862-7.593-20.17-17.735
					L947.093,558.368c-1.437-11.14,6.428-21.335,17.568-22.772c11.155-1.437,21.337,6.428,22.772,17.568l127.733,990.238h706.888
					c8.436,0,15.996,5.207,19.002,13.09l172.209,451.486h281.715v-573.076c0-11.233,9.106-20.337,20.337-20.337
					s20.337,9.104,20.337,20.337v593.413C2335.654,2039.547,2326.548,2048.653,2315.317,2048.653z"/>
			</g>
			<g style="opacity:0.15;">
				
					<linearGradient id="SVGID_00000158708382069571094140000009603417674326449556_" gradientUnits="userSpaceOnUse" x1="2421.1443" y1="4455.5088" x2="793.7262" y2="5932.373" gradientTransform="matrix(0 -1 1 0 -3755.802 3738.6064)">
					<stop  offset="0.0036" style="stop-color:#E38DDD"/>
					<stop  offset="1" style="stop-color:#9571F6"/>
				</linearGradient>
				<path style="fill:url(#SVGID_00000158708382069571094140000009603417674326449556_);" d="M2175.149,2683.332
					c-6.193-132.782,141.443-210.659,127.259-397.974c-1.28-16.899-14.473-161.855-131.138-260.109
					c-104.764-88.231-192.82-55.035-386.721-125.41c-135.897-49.322-288.672-104.773-350.463-216.026
					c-122.709-220.934,227.936-441.61,156.168-727.629c-20.565-81.957-78.63-182.419-231.989-287.331l-371.428-15.052
					c-45.115-1.829-81.947,36.064-81.947,84.476v2179.11c0,48.411,36.832,85.647,81.947,83.014l1384.09-80.785
					C2223.504,2834.391,2178.375,2752.515,2175.149,2683.332z"/>
			</g>
		</g>
		<g>
			<g>
				<g>
					
						<linearGradient id="SVGID_00000142172651914577856980000004995228868906717849_" gradientUnits="userSpaceOnUse" x1="2725.5925" y1="1088.5255" x2="2589.8743" y2="1015.7009">
						<stop  offset="0" style="stop-color:#AB316D"/>
						<stop  offset="1" style="stop-color:#792D3D"/>
					</linearGradient>
					<path style="fill:url(#SVGID_00000142172651914577856980000004995228868906717849_);" d="M3168.471,850.468v463.425
						c0,27.498-22.085,50.566-49.583,50.797l-804.474,8.915h-0.028l-4.381-5.831c-4.612-5.389-4.986-13.622-0.864-19.417
						l104.201-146.779c14.555-20.551,22.774-45.291,22.774-70.484V825.708c0-18.505,9.652-34.559,24.526-43.148
						c7.927-4.612,17.003-7.091,26.861-6.658l12.753,0.49l620.413,24.04C3147.474,801.584,3168.471,823.661,3168.471,850.468z"/>
					
						<linearGradient id="SVGID_00000116234052898533469920000005517218361958225307_" gradientUnits="userSpaceOnUse" x1="2314.2212" y1="1074.1006" x2="3190.8328" y2="1074.1006">
						<stop  offset="0" style="stop-color:#FF9085"/>
						<stop  offset="1" style="stop-color:#FB6FBB"/>
					</linearGradient>
					<path style="fill:url(#SVGID_00000116234052898533469920000005517218361958225307_);" d="M3190.833,850.468v463.425
						c0,27.498-22.098,49.836-49.567,50.067l-827.044,8.388l0.168-0.203l121.318-170.75c14.555-20.551,22.77-45.109,22.77-70.301
						V825.708c0-11.327,3.385-21.761,9.755-30.12c7.696-10.146,19.002-17.236,32.116-19.197c3.085-0.46,6.187-0.633,9.443-0.49
						l633.253,24.53C3169.821,801.584,3190.833,823.661,3190.833,850.468z"/>
				</g>
			</g>
			<g style="opacity:0.48;">
				<path style="fill:#FFFFFF;" d="M3190.833,1301.846v12.047c0,27.498-22.098,49.836-49.567,50.067l-827.044,9.117l0.192,0.527
					h-0.028l-4.381-5.831c-4.612-5.389-4.986-13.622-0.864-19.417l104.201-146.779c14.555-20.551,22.774-45.291,22.774-70.484
					V825.708c0-18.505,9.652-34.559,24.526-43.148c2.421,4.612,4.753,8.936,7.405,13.028c3.2,5.044,6.441,9.714,9.901,14.037
					c89.208,112.412,253.511,32.715,373.762,153.197c30.639,30.697,44.074,60.04,53.125,89.122
					c5.995,19.255,10.018,38.422,15.84,57.763c10.088,33.637,25.531,67.909,65.798,104.37
					c65.084,58.916,120.959,56.696,182.066,78.602C3175.916,1295.332,3185.242,1298.329,3190.833,1301.846z"/>
			</g>
			<g>
				<path style="fill:#FFFFFF;" d="M2722.556,1139.816c-22.992-0.131-41.797,19.289-41.797,43.378
					c0,24.089,18.805,43.373,41.797,43.076c22.763-0.294,41.057-19.713,41.057-43.375
					C2763.613,1159.231,2745.319,1139.945,2722.556,1139.816z M2722.556,1200.201c-9.099,0.067-16.502-7.589-16.502-17.099
					c0-9.51,7.402-17.219,16.502-17.218c9.063,0.001,16.385,7.656,16.385,17.099
					C2738.94,1192.426,2731.619,1200.135,2722.556,1200.201z"/>
				<path style="fill:#FFFFFF;" d="M3074.403,1141.822c-19.629-0.112-35.674,17.831-35.674,40.078s16.044,40.074,35.674,39.82
					c19.45-0.252,35.09-18.193,35.09-40.076C3109.492,1159.761,3093.852,1141.933,3074.403,1141.822z M3074.403,1197.628
					c-7.77,0.057-14.09-7.02-14.09-15.807c0-8.787,6.32-15.909,14.09-15.908c7.742,0.001,13.998,7.078,13.998,15.807
					C3088.4,1190.449,3082.145,1197.572,3074.403,1197.628z"/>
				<path style="fill:#FFFFFF;" d="M3123.811,1095.724l-53.772-21.881v-73.994c0-14.162-10.202-26.099-22.853-26.665
					l-497.869-22.277c-15.837-0.709-28.753,11.663-28.753,27.638v205.227l85.246-0.308l57.824-0.209
					c0-33.958,26.562-61.235,58.922-60.928c31.909,0.302,57.462,27.391,57.462,60.508l150.306-0.543v-172.73l81.01,2.865v169.572
					l12.793-0.046c0-31.353,22.653-56.555,50.276-56.293c27.268,0.258,49.124,25.299,49.124,55.934l13.643-0.049v-64.259
					C3137.169,1107.641,3131.812,1098.979,3123.811,1095.724z M2680.759,1000.738l106.957,3.782v51.404l-106.957-2.58V1000.738z
					 M2543.866,995.897l113.227,4.004v52.872l-113.227-2.731V995.897z M2911.281,1100.056l-367.415-5.466v-16.449l367.415,6.72
					V1100.056z M2911.281,1058.904l-101.193-2.441v-51.152l101.193,3.578V1058.904z M3063.534,1076.455l-37.236-0.778v-62.721
					l37.236,1.316V1076.455z"/>
				<polygon style="fill:#FFFFFF;" points="2998.505,1104.457 2941.261,1122.76 2941.261,1025.041 2998.505,1026.869 				"/>
				<polygon style="fill:#FFFFFF;" points="2998.505,1179.562 2941.261,1179.736 2941.261,1135.337 2998.505,1116.871 				"/>
			</g>
		</g>
		<g>
			
				<linearGradient id="SVGID_00000124857056696419057960000008878108945418428333_" gradientUnits="userSpaceOnUse" x1="2655.238" y1="2743.9685" x2="2423.6211" y2="3524.1538" gradientTransform="matrix(1 0 0 1 -1675.0461 0)">
				<stop  offset="0" style="stop-color:#40447E"/>
				<stop  offset="0.9964" style="stop-color:#3C3B6B"/>
			</linearGradient>
			<path style="fill:url(#SVGID_00000124857056696419057960000008878108945418428333_);" d="M1187.298,3204.041l-517.558-14.424
				c-59.029-2.697-106.026-76.614-106.026-164.83v-0.97c0-88.216,46.997-160.944,106.026-162.147l553.775-18.733L1187.298,3204.041z
				"/>
			<g>
				
					<linearGradient id="SVGID_00000078030329098701957870000006883399489432208048_" gradientUnits="userSpaceOnUse" x1="2772.3303" y1="3020.2361" x2="3778.2773" y2="3020.2361" gradientTransform="matrix(1 0 0 1 -1675.0461 0)">
					<stop  offset="0" style="stop-color:#FF9085"/>
					<stop  offset="1" style="stop-color:#FB6FBB"/>
				</linearGradient>
				<path style="fill:url(#SVGID_00000078030329098701957870000006883399489432208048_);" d="M2103.231,3151.968l-859.528,33.895
					c-80.408,3.171-146.419-55.589-146.419-131.284v-51.35c0-75.695,66.01-137.825,146.419-138.758l859.528-9.983V3151.968z"/>
				
					<linearGradient id="SVGID_00000066478664578735605560000013279689115563934861_" gradientUnits="userSpaceOnUse" x1="2749.4219" y1="3022.1479" x2="3797.019" y2="3022.1479" gradientTransform="matrix(1 0 0 1 -1675.0461 0)">
					<stop  offset="0" style="stop-color:#40447E"/>
					<stop  offset="0.9964" style="stop-color:#3C3B6B"/>
				</linearGradient>
				<path style="fill:url(#SVGID_00000066478664578735605560000013279689115563934861_);" d="M2111.551,3167.493l-909.11,37.198
					c-70.267,2.875-128.065-75.219-128.065-174.117v-1.087c0-98.898,57.798-179.948,128.065-180.666l909.11-9.294
					c5.758-0.059,10.422,6.984,10.422,15.731c0,8.747-4.664,15.9-10.422,15.975l-909.11,11.991
					c-56.573,0.747-103.008,66.075-103.008,145.622v1.085c0,79.547,46.435,142.501,103.008,140.354l909.11-34.501
					c5.758-0.219,10.422,6.695,10.422,15.442S2117.309,3167.257,2111.551,3167.493z"/>
			</g>
			<g>
				
					<linearGradient id="SVGID_00000129903522094545273790000003058000071429956015_" gradientUnits="userSpaceOnUse" x1="2257.2246" y1="2737.0303" x2="2831.291" y2="2737.0303" gradientTransform="matrix(1 0 0 1 -1675.0461 0)">
					<stop  offset="0" style="stop-color:#FF9085"/>
					<stop  offset="1" style="stop-color:#FB6FBB"/>
				</linearGradient>
				<path style="fill:url(#SVGID_00000129903522094545273790000003058000071429956015_);" d="M1156.245,2840.154l-492.68,11.097
					c-45.282,1.02-81.387-34.831-81.387-80.058v-30.681c0-45.227,36.105-84.145,81.387-86.971l492.68-30.753V2840.154z"/>
				
					<linearGradient id="SVGID_00000018939681110991861630000012490466376729737628_" gradientUnits="userSpaceOnUse" x1="2218.2356" y1="2732.4941" x2="2470.895" y2="2735.2554" gradientTransform="matrix(1 0 0 1 -1675.0461 0)">
					<stop  offset="0" style="stop-color:#AA80F9"/>
					<stop  offset="0.9964" style="stop-color:#6165D7"/>
				</linearGradient>
				<path style="fill:url(#SVGID_00000018939681110991861630000012490466376729737628_);" d="M1086.918,2850.003L669.74,2861.67
					c-59.029,1.203-106.026-45.636-106.026-104.387v-0.646c0-58.752,46.997-109.577,106.026-113.379l417.178-32.625
					c7.317-0.462,92.183,5.026,92.183,11.456s-79.268,11.3-86.534,11.733l-422.828,30.552
					c-47.691,2.869-85.819,43.851-85.819,91.406v0.648c0,47.554,38.128,85.302,85.819,84.127l417.178-13.693
					c7.265-0.191,92.183,6.349,92.183,12.778S1094.229,2849.839,1086.918,2850.003z"/>
			</g>
			<g>
				
					<linearGradient id="SVGID_00000111189606688786345120000008667153434610635916_" gradientUnits="userSpaceOnUse" x1="2772.3303" y1="2729.957" x2="3778.2773" y2="2729.957" gradientTransform="matrix(1 0 0 1 -1675.0461 0)">
					<stop  offset="0" style="stop-color:#FF9085"/>
					<stop  offset="1" style="stop-color:#FB6FBB"/>
				</linearGradient>
				<polygon style="fill:url(#SVGID_00000111189606688786345120000008667153434610635916_);" points="2103.231,2829.047 
					1097.284,2838.336 1097.284,2621.578 2103.231,2630.925 				"/>
				
					<linearGradient id="SVGID_00000082337838093228434180000005740183409109890953_" gradientUnits="userSpaceOnUse" x1="2749.4219" y1="2626.427" x2="3797.019" y2="2626.427" gradientTransform="matrix(1 0 0 1 -1675.0461 0)">
					<stop  offset="0" style="stop-color:#AA80F9"/>
					<stop  offset="0.9964" style="stop-color:#6165D7"/>
				</linearGradient>
				<path style="fill:url(#SVGID_00000082337838093228434180000005740183409109890953_);" d="M2111.551,2642.221l-1024.633-8.446
					c-6.923-0.057-12.542-5.29-12.542-11.687c0-6.397,5.619-11.525,12.542-11.455l1024.633,10.47
					c5.758,0.059,10.422,4.829,10.422,10.655C2121.973,2637.584,2117.309,2642.268,2111.551,2642.221z"/>
				
					<linearGradient id="SVGID_00000176022886412340836280000007349744736149911215_" gradientUnits="userSpaceOnUse" x1="2749.4219" y1="2834.2075" x2="3797.019" y2="2834.2075" gradientTransform="matrix(1 0 0 1 -1675.0461 0)">
					<stop  offset="0" style="stop-color:#AA80F9"/>
					<stop  offset="0.9964" style="stop-color:#6165D7"/>
				</linearGradient>
				<path style="fill:url(#SVGID_00000176022886412340836280000007349744736149911215_);" d="M2111.551,2839.528l-1024.633,10.475
					c-6.923,0.071-12.542-5.058-12.542-11.455c0-6.397,5.619-11.629,12.542-11.686l1024.633-8.45
					c5.758-0.047,10.422,4.636,10.422,10.462C2121.973,2834.699,2117.309,2839.469,2111.551,2839.528z"/>
			</g>
			<path style="opacity:0.5;fill:#FFFFFF;" d="M1048.584,3155.182l-110.007-6.283c-26.586-75.787-24.576-148.871,0-237.782
				l110.007,0.333C1026.531,3002.22,1029.886,3082.501,1048.584,3155.182z"/>
			
				<linearGradient id="SVGID_00000138531939856343790120000006206239310214100869_" gradientUnits="userSpaceOnUse" x1="2442.0198" y1="2904.1169" x2="2394.1096" y2="2833.1848" gradientTransform="matrix(1 0 0 1 -1675.0461 0)">
				<stop  offset="0" style="stop-color:#FFC444"/>
				<stop  offset="0.9964" style="stop-color:#F36F56"/>
			</linearGradient>
			<path style="opacity:0.3;fill:url(#SVGID_00000138531939856343790120000006206239310214100869_);" d="M820.55,2859.964
				l-3.498-137.218l-126.283,139.02c0,0-68.239,36.781-56.519,101.362l78.066-31.058l69.343,24.028
				C781.658,2956.098,783.396,2888.27,820.55,2859.964z"/>
			
				<linearGradient id="SVGID_00000016768521717812235250000009143614225771305892_" gradientUnits="userSpaceOnUse" x1="2430.1899" y1="2886.6025" x2="2362.5386" y2="2786.4434" gradientTransform="matrix(1 0 0 1 -1675.0461 0)">
				<stop  offset="0" style="stop-color:#AA80F9"/>
				<stop  offset="0.9964" style="stop-color:#6165D7"/>
			</linearGradient>
			<path style="fill:url(#SVGID_00000016768521717812235250000009143614225771305892_);" d="M676.571,2731.333l140.481-8.586
				c0,0-66.069,50.2-35.393,233.352c0,0-60.057-19.077-86.183-51.739l-61.226,58.77
				C634.25,2963.128,596.867,2800.288,676.571,2731.333z"/>
		</g>
		<g>
			<g>
				<g>
					
						<linearGradient id="SVGID_00000074413348577568341390000001160899363485481918_" gradientUnits="userSpaceOnUse" x1="-1195.8129" y1="1518.4221" x2="-128.2811" y2="2243.5374" gradientTransform="matrix(-1 0 0 1 230.2854 0)">
						<stop  offset="0" style="stop-color:#311944"/>
						<stop  offset="1" style="stop-color:#6B3976"/>
					</linearGradient>
					<path style="fill:url(#SVGID_00000074413348577568341390000001160899363485481918_);" d="M1367.447,1904.124
						c20.083-13.021,1.784-50.898,0.703-132.255c-1.325-99.698,25.154-118.277,3.885-157.391
						c-26.006-47.83-91.472-67.624-134.845-68.556c-9.566-0.205-11.802-5.43-91.943,15.325
						c-144.384,37.394-180.529-2.691-245.188,37.35c-62.468,38.687-35.113,81.056-95.775,126.425
						c-98.328,73.541-201.728-5.966-272.003,55.549c-66.471,58.185-68.002,206.429,1.915,287.329
						c79.261,91.713,222.181,64.158,317.975,45.973c20.155-3.825,121.954-25.203,227.948-103.436
						c58.635-43.281,98.895-89.497,124.509-123.552c6.011-6.765,15.391-14.962,27.775-16.281
						c14.865-1.588,26.808,7.506,32.564,11.492C1295.187,1903.021,1347.72,1916.913,1367.447,1904.124z"/>
					
						<linearGradient id="SVGID_00000183955154970562180640000006817628379140624513_" gradientUnits="userSpaceOnUse" x1="1516.9802" y1="1936.2948" x2="1544.5236" y2="2378.9529">
						<stop  offset="0.0036" style="stop-color:#E38DDD"/>
						<stop  offset="1" style="stop-color:#9571F6"/>
					</linearGradient>
					<path style="fill:url(#SVGID_00000183955154970562180640000006817628379140624513_);" d="M1286.755,1849.484
						c25.822-23.525,117.969,21.816,179.038,81.992c71.744,70.698,66.229,128.021,128.839,215.85
						c31.124,43.663,84.488,102.446,179.039,153.936c-6.693,16.732-13.387,33.468-20.079,50.197
						c-45.715,2.75-135.467,1.133-219.198-53.54c-58.164-37.982-88.092-88.307-145.573-187.408
						C1331.135,2011.054,1254.478,1878.892,1286.755,1849.484z"/>
					
						<linearGradient id="SVGID_00000181785491741235714510000014443443748150659499_" gradientUnits="userSpaceOnUse" x1="-1667.9326" y1="3194.2065" x2="-1524.1616" y2="3194.2065" gradientTransform="matrix(-1 0 0 1 230.2854 0)">
						<stop  offset="0" style="stop-color:#311944"/>
						<stop  offset="1" style="stop-color:#6B3976"/>
					</linearGradient>
					<path style="fill:url(#SVGID_00000181785491741235714510000014443443748150659499_);" d="M1868.748,3194.164l-71.933-43.222
						h-32.465c0,0-11.059,41.165-9.804,43.222c14.464,23.701,81.808,41.732,123.834,43.224c6.977,0.247,16.714,0.284,19.23-4.773
						C1901.871,3224.05,1882.836,3206.085,1868.748,3194.164z"/>
					
						<linearGradient id="SVGID_00000010304781547883984800000000002406192689812356_" gradientUnits="userSpaceOnUse" x1="-1600.1295" y1="3250.866" x2="-1385.6353" y2="2607.3816" gradientTransform="matrix(-1 0 0 1 230.2854 0)">
						<stop  offset="0" style="stop-color:#FFC444"/>
						<stop  offset="0.9964" style="stop-color:#F36F56"/>
					</linearGradient>
					<path style="fill:url(#SVGID_00000010304781547883984800000000002406192689812356_);" d="M1795.541,3103.776
						c-4.624,26.758,1.225,40.708,7.53,48.523c4.438,5.5,8.378,7.065,34.717,29.831c8.709,7.531,13.141,11.563,12.134,13.673
						c-1.151,2.414-8.838,1.104-25.435-2.886c-36.169-8.698-54.346-13.225-58.783-21.929c-4.018-7.882-0.466-11.436-0.7-32.912
						c-0.153-14.139-3.028-25.52-5.289-32.639C1771.658,3104.882,1783.599,3104.33,1795.541,3103.776z"/>
					
						<linearGradient id="SVGID_00000112606139642277704930000002466459649059754639_" gradientUnits="userSpaceOnUse" x1="-1645.0481" y1="2930.2231" x2="-1557.1221" y2="2930.2231" gradientTransform="matrix(-1 0 0 1 230.2854 0)">
						<stop  offset="0" style="stop-color:#311944"/>
						<stop  offset="1" style="stop-color:#6B3976"/>
					</linearGradient>
					<path style="fill:url(#SVGID_00000112606139642277704930000002466459649059754639_);" d="M1847.541,2891.71
						c0,0,32.499,38.779,27.21,81.291c-5.289,42.51-62.204-19.641-70.137-40.647c-7.938-21.004-17.207-50.93-17.207-50.93
						S1827.319,2856.594,1847.541,2891.71z"/>
					
						<linearGradient id="SVGID_00000041980906203056629660000012861990540646216082_" gradientUnits="userSpaceOnUse" x1="-1696.0076" y1="3171.6521" x2="-1552.4336" y2="2740.9287" gradientTransform="matrix(-1 0 0 1 230.2854 0)">
						<stop  offset="0" style="stop-color:#FFC444"/>
						<stop  offset="0.9964" style="stop-color:#F36F56"/>
					</linearGradient>
					<path style="fill:url(#SVGID_00000041980906203056629660000012861990540646216082_);" d="M1835.144,2831.034
						c0,0-8.817,45.178,7.999,69.022c8.376,11.876,19.672,21.949,16.35,31.616c-2.226,6.479-10.68,11.133-17.84,10.398
						c-13.709-1.408-21.309-22.426-26.67-37.249c-7.916-21.896-12.33-68.749-12.33-68.749L1835.144,2831.034z"/>
					
						<linearGradient id="SVGID_00000080917922273039649280000016775308810670494616_" gradientUnits="userSpaceOnUse" x1="-1519.0978" y1="2445.9875" x2="-1412.0103" y2="3065.0884" gradientTransform="matrix(-1 0 0 1 230.2854 0)">
						<stop  offset="0" style="stop-color:#AB316D"/>
						<stop  offset="1" style="stop-color:#792D3D"/>
					</linearGradient>
					<path style="fill:url(#SVGID_00000080917922273039649280000016775308810670494616_);" d="M1809.242,2869.118
						c9.995-3.639,19.99-7.281,29.984-10.922c15.592-35.614,34.622-94.108,28.266-165.207
						c-16.347-182.843-185.456-279.733-204.242-290.103c-46.075,23.118-92.744,55.729-94.434,96.843
						c-2.121,51.609,68.186,78.89,134.278,154.358C1742.765,2699.385,1785.154,2766.883,1809.242,2869.118z"/>
					
						<linearGradient id="SVGID_00000109022327635464164510000001384474632273532830_" gradientUnits="userSpaceOnUse" x1="-1367.8649" y1="3179.7126" x2="-1215.5988" y2="2697.8157" gradientTransform="matrix(-1 0 0 1 230.2854 0)">
						<stop  offset="0" style="stop-color:#AB316D"/>
						<stop  offset="1" style="stop-color:#792D3D"/>
					</linearGradient>
					<path style="fill:url(#SVGID_00000109022327635464164510000001384474632273532830_);" d="M1798.468,3124.689
						c33.023-129,24.587-234.268,15.061-294.911c-14.4-91.657-43.686-278.097-168.163-347.618
						c-27.182-15.182-66.041-28.777-113.402-70.984c-39.551-35.247-64.69-72.317-79.858-98.433
						c-166.473-48.835-320.021-29.044-387.777,60.237c-7.829,10.317-27.429,32.693-31.22,65.689
						c-8.557,74.447,64.593,164.074,146.674,182.79c104.318,23.787,164.838-83.327,257.262-47.688
						c25.854,9.968,47.772,34.672,91.611,84.08c55.769,62.853,87.118,120.85,98.979,144.057
						c35.316,69.105,62.098,120.119,66.004,186.232c0.909,15.401,1.453,46.518,19.493,80.077
						c13.847,25.761,32.618,42.938,46.582,53.55C1772.634,3122.741,1785.551,3123.717,1798.468,3124.689z"/>
					
						<linearGradient id="SVGID_00000067933191570752723200000012693659606834348983_" gradientUnits="userSpaceOnUse" x1="-1367.8513" y1="3179.7178" x2="-1215.5852" y2="2697.8208" gradientTransform="matrix(-1 0 0 1 230.2854 0)">
						<stop  offset="0" style="stop-color:#AB316D"/>
						<stop  offset="1" style="stop-color:#792D3D"/>
					</linearGradient>
					<path style="opacity:0.3;fill:url(#SVGID_00000067933191570752723200000012693659606834348983_);" d="M1033.109,2438.67
						c3.791-32.996,23.392-55.372,31.22-65.689c67.756-89.281,221.304-109.072,387.777-60.237
						c15.168,26.116,40.307,63.186,79.856,98.433c47.362,42.207,86.221,55.802,113.403,70.984
						c76.011,42.453,116.492,128.491,139.798,209.934c-34.581-53.617-64.182-67.871-87.09-68.125
						c-32.789-0.364-47.44,27.67-86.592,23.843c-41.847-4.089-51.414-38.691-85.335-42.666c-10.153-1.19-22.646,0.376-37.651,8.365
						c-20.023-20.966-34.948-33.376-51.451-39.739c-92.424-35.638-152.944,71.475-257.262,47.688
						C1097.701,2602.743,1024.552,2513.116,1033.109,2438.67z"/>
					
						<linearGradient id="SVGID_00000082351967159722320470000003749894429817410452_" gradientUnits="userSpaceOnUse" x1="-1153.592" y1="2383.5024" x2="-1046.7512" y2="3001.177" gradientTransform="matrix(-1 0 0 1 230.2854 0)">
						<stop  offset="0" style="stop-color:#AB316D"/>
						<stop  offset="1" style="stop-color:#792D3D"/>
					</linearGradient>
					<path style="fill:url(#SVGID_00000082351967159722320470000003749894429817410452_);" d="M1712.215,2539.857
						c-18.842-1.001-47.858-1.58-82.858,1.878c-166.105,16.415-211.896,98.577-349.178,118.626
						c-32.474,4.744-177.068,25.862-239.694-57.727c-44.961-60.011-38.159-163.417,11.02-204.087
						c20.812-17.213,41.419-16.734,174.712-15.529c50.197,0.455,100.397,0.617,150.593,1.257
						c212.484,2.708,253.119-12.008,291.78,23.137C1686.625,2423.808,1712.998,2459.022,1712.215,2539.857z"/>
					<g>
						<g>
							
								<linearGradient id="SVGID_00000031924349205550184900000008229567028171531654_" gradientUnits="userSpaceOnUse" x1="-1308.0618" y1="2000.0198" x2="-358.9748" y2="2347.573" gradientTransform="matrix(-1 0 0 1 230.2854 0)">
								<stop  offset="0.0036" style="stop-color:#E38DDD"/>
								<stop  offset="1" style="stop-color:#9571F6"/>
							</linearGradient>
							<path style="fill:url(#SVGID_00000031924349205550184900000008229567028171531654_);" d="M1263.64,1858.106
								c0,0-247.949-72.311-273.671,109.211c-24.653,173.983,101.644,253.824,44.178,430.052
								c-6.661,20.427,471.992-73.145,471.992-73.145c-63.894-79.712-78.742-145.474-80.268-191.198
								c-1.674-50.128,12.775-72.912,0-132.171c0,0-14.255-66.119-65.682-122.895
								C1352.807,1869.811,1344.006,1861.322,1263.64,1858.106z"/>
						</g>
						<path style="fill:#F4F7FA;" d="M1104.809,2358.956l-0.877-3.274c2.329-0.624,234.359-62.369,371.6-70.06l0.189,3.383
							C1338.829,2296.678,1107.133,2358.333,1104.809,2358.956z"/>
					</g>
					<g>
						
							<linearGradient id="SVGID_00000178891574015758593860000006571218886015484558_" gradientUnits="userSpaceOnUse" x1="3084.8469" y1="1701.2546" x2="3095.7578" y2="1410.6277" gradientTransform="matrix(0.984 0.1784 -0.1784 0.984 -1518.1509 -244.2395)">
							<stop  offset="0" style="stop-color:#FFC444"/>
							<stop  offset="0.9964" style="stop-color:#F36F56"/>
						</linearGradient>
						<path style="fill:url(#SVGID_00000178891574015758593860000006571218886015484558_);" d="M1209.789,1749.32
							c2.272,10.612,13.834,67.556-9.464,82.207c-5.05,3.177-14.754,4.994-34.163,8.633c-12.707,2.382-23.369,3.842-30.888,4.741
							c1.086,9.548,4.303,25.091,15.322,39.228c30.891,39.631,92.829,29.376,101.662,27.767
							c31.155-5.673,61.813-15.299,69.217-21.182c11.273-8.958,20.137-15.68,25.38-22.508c-12.057-5.826-36.398-21.192-52.734-26.22
							c-12.208-3.755-23.667-6.436-34.092-8.36c-1.712-11-3.428-22-5.142-33.001
							C1239.855,1783.523,1224.821,1766.422,1209.789,1749.32z"/>
						
							<linearGradient id="SVGID_00000123410084669092147630000001304091598910993567_" gradientUnits="userSpaceOnUse" x1="3081.4421" y1="1444.688" x2="3076.7717" y2="1820.9744" gradientTransform="matrix(0.984 0.1784 -0.1784 0.984 -1518.1509 -244.2395)">
							<stop  offset="0" style="stop-color:#FFC444"/>
							<stop  offset="0.9964" style="stop-color:#F36F56"/>
						</linearGradient>
						<path style="fill:url(#SVGID_00000123410084669092147630000001304091598910993567_);" d="M1208.698,1777.699
							c0,0,4.21,41.73,44.775,49.084c36.322,6.584,63.662-81.184,45.074-103.887c-6.201-7.573-21.507-14.778-34.777-14.396
							c-9.332,0.27-40.855,12.275-45.255,43.817c-6.278-6.614-14.101-8.516-17.957-5.746c-4.892,3.514-2.272,13.729-1.676,16.043
							C1200.94,1770.632,1206.176,1775.602,1208.698,1777.699z"/>
					</g>
				</g>
			</g>
			<g>
				
					<linearGradient id="SVGID_00000170974713535759508010000002365594401502618256_" gradientUnits="userSpaceOnUse" x1="173.4415" y1="2375.4338" x2="588.2343" y2="2375.4338" gradientTransform="matrix(-1 0 0 1 1740.2787 0)">
					<stop  offset="0" style="stop-color:#40447E"/>
					<stop  offset="0.9964" style="stop-color:#3C3B6B"/>
				</linearGradient>
				<path style="fill:url(#SVGID_00000170974713535759508010000002365594401502618256_);" d="M1556.677,2344.606l-379.495,18.467
					c-5.223,0.256-9.988,3.054-12.752,7.491l-10.501,16.854c-5.226,8.389,1.054,19.21,10.932,18.833l401.975-15.313
					L1556.677,2344.606z"/>
				
					<linearGradient id="SVGID_00000111150505431938831940000002102912150674553742_" gradientUnits="userSpaceOnUse" x1="-91.8186" y1="2113.7808" x2="180.1311" y2="2383.5549" gradientTransform="matrix(-1 0 0 1 1740.2787 0)">
					<stop  offset="0" style="stop-color:#40447E"/>
					<stop  offset="0.9964" style="stop-color:#3C3B6B"/>
				</linearGradient>
				<path style="fill:url(#SVGID_00000111150505431938831940000002102912150674553742_);" d="M1951.385,2133.277l-392.061,7.598
					c-11.6,0.225-22.223,6.545-27.956,16.631l-135.766,238.866l414.065-16.496c11.365-0.453,21.735-6.607,27.578-16.366
					l125.786-210.145C1968.386,2144.42,1961.809,2133.074,1951.385,2133.277z"/>
				
					<linearGradient id="SVGID_00000083808170779372391600000013742545457382585746_" gradientUnits="userSpaceOnUse" x1="-91.8181" y1="2113.7808" x2="180.1319" y2="2383.5552" gradientTransform="matrix(-1 0 0 1 1740.2787 0)">
					<stop  offset="0" style="stop-color:#40447E"/>
					<stop  offset="0.9964" style="stop-color:#3C3B6B"/>
				</linearGradient>
				<path style="opacity:0.3;fill:url(#SVGID_00000083808170779372391600000013742545457382585746_);" d="M1531.367,2157.506
					c5.733-10.087,16.356-16.407,27.957-16.632l8.592-0.166c1.281,12.655,5.164,24.232,12.908,33.579
					c24.176,29.181,64.34,11.181,94.277,42.063c32.885,33.923,2.505,74.306,31.908,105.878c30.948,33.23,80.99,6.174,138.517,27.44
					l-8.283,13.839c-5.841,9.761-16.212,15.914-27.577,16.368l-414.065,16.496L1531.367,2157.506z"/>
			</g>
			<g>
				
					<linearGradient id="SVGID_00000000218909076606308170000011139716424058169789_" gradientUnits="userSpaceOnUse" x1="953.2831" y1="2018.4661" x2="978.6701" y2="2426.4697" gradientTransform="matrix(0.9933 -0.1159 0.1159 0.9933 -217.4344 89.9445)">
					<stop  offset="0.0036" style="stop-color:#E38DDD"/>
					<stop  offset="1" style="stop-color:#9571F6"/>
				</linearGradient>
				<path style="fill:url(#SVGID_00000000218909076606308170000011139716424058169789_);" d="M1208.107,2331.925
					c4.939-13.045,9.879-26.086,14.818-39.132c-54.591-14.969-130.093-37.082-207.536-64.754
					c-12.129-4.335-26.537-9.703-31.258-22.466c-13.242-35.801,70.942-72.9,103.668-151.071
					c30.267-72.298,13.608-172.629-21.518-184.482c-73.094-24.664-332.297,297.981-239.721,433.991
					C878.89,2380.897,1040.226,2393.138,1208.107,2331.925z"/>
			</g>
			
				<linearGradient id="SVGID_00000124151658106028805070000005124414070573145499_" gradientUnits="userSpaceOnUse" x1="1307.0745" y1="2293.6411" x2="1169.1887" y2="2423.5806">
				<stop  offset="0" style="stop-color:#FFC444"/>
				<stop  offset="0.9964" style="stop-color:#F36F56"/>
			</linearGradient>
			<path style="fill:url(#SVGID_00000124151658106028805070000005124414070573145499_);" d="M1222.925,2292.793
				c34.272-18.206,75.297,0.456,77.941,1.705c7.53,3.554,18.49,9.887,29.564,21.198c1.251,1.709,16.118,22.309,10.702,28.909
				c-4.341,5.289-21.152,0.904-41.358-11.662c-8.47-1.187-21.078-2.278-36.183-0.887c-27.738,2.558-40.445,11.322-50.515,3.758
				c-7.374-5.537-9.887-17.245-7.233-25.949C1208.692,2300.514,1217.124,2295.875,1222.925,2292.793z"/>
		</g>
	</g>
</g>
</svg>
