<?xml version="1.0" encoding="utf-8"?>
<!-- Generator: Adobe Illustrator 27.5.0, SVG Export Plug-In . SVG Version: 6.00 Build 0)  -->
<svg version="1.1" id="Illustration" xmlns="http://www.w3.org/2000/svg" xmlns:xlink="http://www.w3.org/1999/xlink" x="0px"
	 y="0px" viewBox="0 0 2000 2000" style="enable-background:new 0 0 2000 2000;" xml:space="preserve">
<g id="Template_1_">
</g>
<g id="Layer_3">
</g>
<g>
	<rect style="fill-rule:evenodd;clip-rule:evenodd;fill:#FFFFFF;" width="2000" height="2000"/>
	<g>
		<path id="XMLID_6_" style="fill:#D5F0FF;" d="M898.312,63.553c249.644-17.581,478.089,75.515,631.112,234.806
			c243.019,109.194,415.252,334.785,430.488,606.13c22.617,403.204-309.925,754.724-742.779,785.12
			c-118.67,8.367-232.515-8.367-335.76-45.224c-5.489,0.53-10.978,0.953-16.561,1.377
			c-432.854,30.397-802.019-271.768-824.731-674.867c-12.87-230.251,90.091-443.663,261.283-590.032
			C435.649,203.568,650.467,80.923,898.312,63.553L898.312,63.553z"/>
		<g id="XMLID_746_">
			<path id="XMLID_780_" style="fill-rule:evenodd;clip-rule:evenodd;fill:#4FBD9D;" d="M1163.468,1198.675
				c8.996-181.732,15.31-540.765,3.555-535.326c4.531,26.722-2.619,405.743-40.688,551.288L1163.468,1198.675z"/>
			<path id="XMLID_779_" style="fill-rule:evenodd;clip-rule:evenodd;fill:#4FBD9D;" d="M1164.824,608.159
				c6.619,11.774,20.828,20.028,21.833,35.949c1.005,15.921-6.049,30.29-17.234,38.364c-12.131-6.607-20.828-20.028-21.833-35.95
				C1146.624,630.632,1158.869,621.415,1164.824,608.159L1164.824,608.159z"/>
			<path id="XMLID_778_" style="fill-rule:evenodd;clip-rule:evenodd;fill:#4FBD9D;" d="M1120.102,699.08
				c9.762,1.217,20.752-3.548,30.495,2.81c9.772,6.318,15.163,16.653,15.014,26.664c-9.135,4.229-20.752,3.548-30.525-2.77
				C1125.383,719.456,1125.27,708.302,1120.102,699.08L1120.102,699.08z"/>
			<path id="XMLID_777_" style="fill-rule:evenodd;clip-rule:evenodd;fill:#4FBD9D;" d="M1203.219,680.127
				c-2.484,6.722-0.87,15.246-6.897,21.091c-6.098,5.854-14.236,7.951-21.284,6.224c-1.525-7.073,0.879-15.176,6.906-21.021
				C1188.002,680.537,1195.84,682.299,1203.219,680.127L1203.219,680.127z"/>
			<path id="XMLID_776_" style="fill-rule:evenodd;clip-rule:evenodd;fill:#4FBD9D;" d="M1228.599,735.758
				c-12.141,3.636-27.126-0.053-38.178,10.073c-10.982,10.116-15.625,24.373-13.264,37.114c12.446,3.389,27.056,0.062,38.107-10.064
				C1226.317,762.756,1223.978,748.585,1228.599,735.758L1228.599,735.758z"/>
			<path id="XMLID_775_" style="fill-rule:evenodd;clip-rule:evenodd;fill:#4FBD9D;" d="M1097.548,774.2
				c14.01,1.75,29.756-5.048,43.749,3.984c14.002,9.102,21.747,23.936,21.514,38.348c-13.061,6.079-29.756,5.048-43.749-3.984
				C1105.061,803.446,1104.936,787.441,1097.548,774.2L1097.548,774.2z"/>
			<path id="XMLID_774_" style="fill-rule:evenodd;clip-rule:evenodd;fill:#4FBD9D;" d="M1256.303,808.882
				c-17.724,3.782-38.653-3.243-55.54,9.917c-16.927,13.131-25.244,32.95-23.398,51.399c17.445,6.318,38.653,3.243,55.611-9.927
				C1249.901,847.141,1248.281,826.663,1256.303,808.882L1256.303,808.882z"/>
			<path id="XMLID_773_" style="fill-rule:evenodd;clip-rule:evenodd;fill:#4FBD9D;" d="M1050.767,853.302
				c22.833,2.879,48.626-8.271,71.465,6.561c22.87,14.793,35.523,39.028,35.168,62.59c-21.393,9.915-48.626,8.271-71.495-6.522
				C1063.026,901.069,1062.82,874.942,1050.767,853.302L1050.767,853.302z"/>
			<path id="XMLID_772_" style="fill-rule:evenodd;clip-rule:evenodd;fill:#4FBD9D;" d="M1303.406,908.114
				c-27.483,3.385-58.375-10.04-85.85,7.689c-27.475,17.729-42.686,46.756-42.368,75.045c25.662,11.954,58.375,10.039,85.85-7.689
				C1288.514,965.43,1288.78,934.065,1303.406,908.114L1303.406,908.114z"/>
			<path id="XMLID_771_" style="fill-rule:evenodd;clip-rule:evenodd;fill:#4FBD9D;" d="M1002.174,949.383
				c32.666,7.798,71.65-4.24,102.4,20.837c30.68,25.086,45.054,62.077,40.866,96.112c-32.493,10.948-71.65,4.24-102.361-20.806
				C1012.359,1020.41,1016.286,982.592,1002.174,949.383L1002.174,949.383z"/>
			<path id="XMLID_770_" style="fill-rule:evenodd;clip-rule:evenodd;fill:#4FBD9D;" d="M1189.762,1226.957
				c144.596-199.413,417.232-601.93,399.908-604.447c-14.627,33.623-303.02,458.212-453.757,595.152L1189.762,1226.957z"/>
			<path id="XMLID_769_" style="fill-rule:evenodd;clip-rule:evenodd;fill:#4FBD9D;" d="M1627.941,558.366
				c-1.183,18.215,8.844,38.058-1.786,56.869c-10.67,18.781-29.261,29.888-47.912,30.762c-8.853-16.433-8.814-38.098,1.816-56.909
				C1590.729,570.307,1611.385,568.948,1627.941,558.366L1627.941,558.366z"/>
			<path id="XMLID_768_" style="fill-rule:evenodd;clip-rule:evenodd;fill:#4FBD9D;" d="M1510.035,628.398
				c10.185,8.582,26.148,11.317,32.546,25.69c6.369,14.413,4.805,30.075-2.735,41.368c-13.498-1.926-26.147-11.318-32.546-25.691
				C1500.932,655.353,1509.073,642.694,1510.035,628.398L1510.035,628.398z"/>
			<path id="XMLID_767_" style="fill-rule:evenodd;clip-rule:evenodd;fill:#4FBD9D;" d="M1618.257,668.325
				c-7.707,5.821-12.243,16.638-23.403,18.821c-11.2,2.153-22.004-1.493-28.749-8.648c3.543-9.185,12.243-16.638,23.442-18.79
				C1600.708,657.525,1608.329,665.347,1618.257,668.325L1618.257,668.325z"/>
			<path id="XMLID_766_" style="fill-rule:evenodd;clip-rule:evenodd;fill:#4FBD9D;" d="M1605.924,750.167
				c-16.456-4.81-30.72-20.085-50.681-16.751c-20.001,3.304-35.764,16.064-42.542,32.214c11.62,13.134,30.69,20.125,50.65,16.791
				C1583.382,779.077,1591.263,761.315,1605.924,750.167L1605.924,750.167z"/>
			<path id="XMLID_765_" style="fill-rule:evenodd;clip-rule:evenodd;fill:#4FBD9D;" d="M1428.89,696.898
				c14.577,12.307,37.512,16.208,46.652,36.884c9.171,20.637,6.964,43.164-3.876,59.363c-19.323-2.782-37.551-16.238-46.692-36.914
				C1415.804,735.595,1427.51,717.352,1428.89,696.898L1428.89,696.898z"/>
			<path id="XMLID_764_" style="fill-rule:evenodd;clip-rule:evenodd;fill:#4FBD9D;" d="M1583.298,853.594
				c-22.886-8.831-41.457-32.232-70.323-29.838c-28.905,2.364-52.959,18.74-64.516,40.994
				c15.086,20.053,41.457,32.232,70.362,29.868C1547.727,892.254,1561.022,867.803,1583.298,853.594L1583.298,853.594z"/>
			<path id="XMLID_763_" style="fill-rule:evenodd;clip-rule:evenodd;fill:#4FBD9D;" d="M1317.353,751.977
				c23.808,20.161,61.246,26.566,76.215,60.301c15,33.695,11.401,70.506-6.401,96.992c-31.552-4.558-61.286-26.596-76.246-60.261
				C1295.952,815.274,1315.089,785.467,1317.353,751.977L1317.353,751.977z"/>
			<path id="XMLID_762_" style="fill-rule:evenodd;clip-rule:evenodd;fill:#4FBD9D;" d="M1563.309,1000.911
				c-33.659-16.477-58.736-54.523-103.015-54.76c-44.269-0.167-82.988,21.505-103.535,53.822
				c20.26,32.486,58.776,54.553,103.045,54.72C1504.083,1054.93,1527.605,1019.536,1563.309,1000.911L1563.309,1000.911z"/>
			<path id="XMLID_761_" style="fill-rule:evenodd;clip-rule:evenodd;fill:#4FBD9D;" d="M1191.221,825.046
				c31.279,32.962,84.392,48.172,100.675,99.321c16.314,51.11,5.249,103.735-24.686,139.209
				c-44.959-11.635-84.392-48.172-100.675-99.322C1150.252,913.105,1182.643,873.09,1191.221,825.046L1191.221,825.046z"/>
			<path id="XMLID_760_" style="fill-rule:evenodd;clip-rule:evenodd;fill:#4FBD9D;" d="M1199.193,1271.752
				c183.988-116.876,539.567-358.946,526.144-366.663c-22.995,22.905-398.73,277.97-567.446,341.403L1199.193,1271.752z"/>
			<path id="XMLID_759_" style="fill-rule:evenodd;clip-rule:evenodd;fill:#4FBD9D;" d="M1777.745,864.8
				c-6.946,14.639-5.16,34.237-20.067,46.204c-14.907,11.966-33.796,15.049-49.398,9.695c-1.931-16.439,5.16-34.237,20.067-46.204
				C1743.215,862.499,1760.675,868.137,1777.745,864.8L1777.745,864.8z"/>
			<path id="XMLID_758_" style="fill-rule:evenodd;clip-rule:evenodd;fill:#4FBD9D;" d="M1657.898,883.925
				c5.58,10.416,17.824,17.864,18.375,31.741c0.561,13.948-5.828,26.371-15.723,33.164c-10.445-6.013-17.824-17.864-18.376-31.741
				C1641.613,903.142,1652.447,895.365,1657.898,883.925L1657.898,883.925z"/>
			<path id="XMLID_757_" style="fill-rule:evenodd;clip-rule:evenodd;fill:#4FBD9D;" d="M1733.891,952.107
				c-8.26,2.256-15.5,9.691-25.387,7.813c-9.918-1.838-17.618-8.4-20.815-16.497c5.921-6.365,15.469-9.651,25.357-7.773
				C1722.963,937.488,1726.704,946.439,1733.891,952.107L1733.891,952.107z"/>
			<path id="XMLID_756_" style="fill-rule:evenodd;clip-rule:evenodd;fill:#4FBD9D;" d="M1697.037,1015.383
				c-11.929-9.346-18.707-26.523-36.201-30.301c-17.534-3.808-34.69,1.539-45.509,12.596c5.287,14.595,18.676,26.562,36.171,30.34
				C1669.031,1031.827,1681.319,1019.75,1697.037,1015.383L1697.037,1015.383z"/>
			<path id="XMLID_755_" style="fill-rule:evenodd;clip-rule:evenodd;fill:#4FBD9D;" d="M1568.823,913.744
				c7.975,14.946,25.545,25.636,26.349,45.617s-8.358,37.773-22.598,47.544c-14.966-8.579-25.576-25.596-26.379-45.577
				C1545.432,941.378,1561.013,930.177,1568.823,913.744L1568.823,913.744z"/>
			<path id="XMLID_754_" style="fill-rule:evenodd;clip-rule:evenodd;fill:#4FBD9D;" d="M1644.676,1093.06
				c-15.938-14.729-23.562-40.034-48.119-47.498c-24.557-7.464-49.637-1.869-66.405,12.702
				c5.844,21.371,23.562,40.034,48.119,47.498C1602.828,1113.227,1621.756,1097.472,1644.676,1093.06L1644.676,1093.06z"/>
			<path id="XMLID_751_" style="fill-rule:evenodd;clip-rule:evenodd;fill:#4FBD9D;" d="M1459.098,922.727
				c12.992,24.367,41.752,41.827,43.047,74.444c1.295,32.618-13.656,61.717-36.947,77.669
				c-24.446-14.045-41.752-41.827-43.047-74.444C1420.856,967.778,1446.295,949.503,1459.098,922.727L1459.098,922.727z"/>
			<path id="XMLID_750_" style="fill-rule:evenodd;clip-rule:evenodd;fill:#4FBD9D;" d="M1580.173,1207.701
				c-22.323-24.5-30.506-64.004-66.839-78.622c-36.374-14.648-75.274-9.402-102.746,10.467c6.07,33.365,30.545,64.034,66.879,78.652
				C1513.801,1232.817,1544.736,1211.375,1580.173,1207.701L1580.173,1207.701z"/>
			<path id="XMLID_749_" style="fill-rule:evenodd;clip-rule:evenodd;fill:#4FBD9D;" d="M1331.55,941.642
				c14.921,37.345,53.697,67.156,50.345,114.531c-3.282,47.365-29.509,87.049-65.719,106.42
				c-33.168-24.215-53.656-67.126-50.375-114.491C1269.083,1000.736,1308.777,978.362,1331.55,941.642L1331.55,941.642z"/>
		</g>
		<ellipse style="fill:#DFE6FF;" cx="1000" cy="1884.564" rx="863.981" ry="54"/>
		<g>
			<polygon style="fill:#FFFFFF;" points="898.932,150.804 908.305,181.306 938.807,190.665 908.305,200.038 898.932,230.54 
				889.573,200.038 859.071,190.665 889.573,181.306 			"/>
		</g>
		<g>
			<polygon style="fill:#FFFFFF;" points="254.989,1059.334 264.362,1089.837 294.865,1099.195 264.362,1108.568 254.989,1139.071 
				245.631,1108.568 215.128,1099.195 245.631,1089.837 			"/>
		</g>
		<g>
			<polygon style="fill:#FFFFFF;" points="435.012,719.797 440.951,739.126 460.281,745.057 440.951,750.996 435.012,770.326 
				429.081,750.996 409.752,745.057 429.081,739.126 			"/>
		</g>
		<g>
			<polygon style="fill:#FFFFFF;" points="1681.808,546.479 1687.747,565.808 1707.077,571.738 1687.747,577.678 1681.808,597.008 
				1675.877,577.678 1656.548,571.738 1675.877,565.808 			"/>
		</g>
		<g>
			<path id="XMLID_54_" style="fill-rule:evenodd;clip-rule:evenodd;fill:#2C7EFE;" d="M1101.252,1045.86
				c72.754-2.416,172.088,1.381,235.262,28.912c71.373,32.795,236.815,257.01,313.453,300.852
				c77.155,24.165,149.477,60.326,177.439,115.732c22.18,66.108,18.296,157.158,1.898,194.786
				c-14.413,34.78-54.975,63.174-81.988,67.489l-647.531,2.417L1101.252,1045.86z"/>
			<path id="XMLID_53_" style="fill-rule:evenodd;clip-rule:evenodd;fill:#D5F0FF;" d="M1142.678,1104.201
				c1.122,38.06-5.782,186.587,39.268,222.23c18.642,20.281,266.417,30.897,395.182,36.161
				c-74.911-79.485-194.786-221.281-224.647-238.628C1320.634,1107.049,1212.583,1098.419,1142.678,1104.201L1142.678,1104.201z"/>
			<path id="XMLID_52_" style="fill-rule:evenodd;clip-rule:evenodd;fill:#0643A3;" d="M1141.728,1417.567h116.682
				c2.675,0,4.833,2.158,4.833,4.833v17.347c0,2.675-2.158,4.833-4.833,4.833h-116.682c-2.675,0-4.833-2.158-4.833-4.833V1422.4
				C1136.895,1419.725,1139.053,1417.567,1141.728,1417.567L1141.728,1417.567z"/>
			<path id="XMLID_51_" style="fill-rule:evenodd;clip-rule:evenodd;fill:#0643A3;" d="M1534.752,1250.312h11.219
				c4.747,0,8.63,3.884,8.63,8.63v94.07c0,4.747-3.884,8.717-8.63,8.717h-11.219c-4.833,0-8.716-3.97-8.716-8.717v-94.07
				C1526.036,1254.195,1529.919,1250.312,1534.752,1250.312L1534.752,1250.312z"/>
			<path id="XMLID_48_" style="fill-rule:evenodd;clip-rule:evenodd;fill:#0643A3;" d="M1835.432,1521.562h-735.129l-0.518,234.485
				l647.531-2.417c27.013-4.315,67.575-32.709,81.988-67.489C1843.372,1654.037,1848.205,1582.837,1835.432,1521.562
				L1835.432,1521.562z"/>
			<path id="XMLID_47_" style="fill-rule:evenodd;clip-rule:evenodd;fill:#153663;" d="M1584.376,1891.111
				c90.273,0,163.976-73.702,163.976-163.975s-73.703-163.89-163.976-163.89c-90.273,0-163.976,73.616-163.976,163.89
				S1494.104,1891.111,1584.376,1891.111L1584.376,1891.111z"/>
			<path id="XMLID_46_" style="fill-rule:evenodd;clip-rule:evenodd;fill:#FEB542;" d="M1827.664,1492.133
				c-25.632-0.777-48.589,2.417-52.817,19.505c-3.797,37.197,34.866,63.087,68.007,81.988
				C1842.595,1559.795,1837.935,1523.202,1827.664,1492.133L1827.664,1492.133z"/>
			<path id="XMLID_1_" style="fill-rule:evenodd;clip-rule:evenodd;fill:#6699FF;" d="M1584.376,1824.572
				c53.68,0,97.436-43.756,97.436-97.436c0-53.594-43.756-97.35-97.436-97.35c-53.681,0-97.436,43.756-97.436,97.35
				C1486.94,1780.816,1530.696,1824.572,1584.376,1824.572L1584.376,1824.572z"/>
		</g>
		<g id="XMLID_7548_">
			<path id="XMLID_7545_" style="fill-rule:evenodd;clip-rule:evenodd;fill:#4B76BA;" d="M1102.441,434.079l-2.08,1409.607
				c-0.038,26.115-21.451,47.464-47.647,47.425l-655.472-0.967c-1.714-0.003-3.427-0.087-5.059-0.252l0,0
				c-38.845-0.221-65.994-18.051-66.24-72.974l23.835-3.637l2.036-1380.31c0.039-26.114,21.451-47.464,47.647-47.425l640.701,0.945
				l-3.63-28.486c17.872,0.026,63.733,1.808,65.671,71.259C1102.364,430.815,1102.444,432.447,1102.441,434.079L1102.441,434.079z"
				/>
			<path id="XMLID_7544_" style="fill-rule:evenodd;clip-rule:evenodd;fill:#8DAFDB;" d="M1078.572,405.644l-2.08,1409.525
				c-0.039,26.114-21.451,47.546-47.647,47.507l-655.472-0.967c-26.196-0.039-47.546-21.533-47.507-47.647l2.08-1409.525
				c0.039-26.196,21.451-47.546,47.647-47.507l655.472,0.967C1057.261,358.036,1078.611,379.448,1078.572,405.644L1078.572,405.644z
				"/>
			<path id="XMLID_7543_" style="fill-rule:evenodd;clip-rule:evenodd;fill:#15489D;" d="M782.273,392.884L782.273,392.884
				c-0.006,3.999-3.275,7.177-7.274,7.171l-143.466-0.212c-3.999-0.006-7.258-3.193-7.253-7.192l0,0
				c0.006-3.999,3.275-7.258,7.274-7.252l143.466,0.212C779.02,385.617,782.279,388.886,782.273,392.884L782.273,392.884z"/>
			<path id="XMLID_7541_" style="fill-rule:evenodd;clip-rule:evenodd;fill:#FFFFFF;" d="M645.175,1773.811
				c-0.046,30.848,25.134,56.02,55.982,56.065c30.848,0.046,56.102-25.052,56.147-55.9c0.046-30.929-25.134-56.102-55.982-56.147
				C670.475,1717.784,645.221,1742.882,645.175,1773.811L645.175,1773.811z"/>
			
				<rect id="XMLID_7540_" x="87.511" y="707.487" transform="matrix(0.0015 -1 1 0.0015 -352.4812 1754.4948)" style="fill-rule:evenodd;clip-rule:evenodd;fill:#FFFFFF;" width="1229.582" height="692.522"/>
			<polygon id="XMLID_7539_" style="fill-rule:evenodd;clip-rule:evenodd;fill:#4B76BA;" points="1049.234,599.256 1049.47,439.469 
				631.639,438.852 631.173,755.163 			"/>
			
				<rect id="XMLID_7538_" x="692.561" y="1313.431" transform="matrix(0.0015 -1 1 0.0015 -451.5547 2359.3994)" style="fill-rule:evenodd;clip-rule:evenodd;fill:#16B79E;" width="526.206" height="184.76"/>
			
				<rect id="XMLID_7536_" x="468.344" y="1304.245" transform="matrix(0.0015 -1 1 0.0015 -675.1097 2134.8528)" style="fill-rule:evenodd;clip-rule:evenodd;fill:#4B76BA;" width="526.206" height="202.469"/>
			<polygon id="XMLID_7535_" style="fill-rule:evenodd;clip-rule:evenodd;fill:#16B79E;" points="630.647,1111.625 
				833.115,1111.923 833.705,712.291 631.124,787.806 			"/>
			<polygon id="XMLID_7534_" style="fill-rule:evenodd;clip-rule:evenodd;fill:#16B79E;" points="864.324,700.911 863.718,1111.969 
				1048.477,1112.241 1049.186,631.899 			"/>
			
				<rect id="XMLID_7533_" x="319.01" y="476.329" transform="matrix(0.0015 -1 1 0.0015 -120.3229 1076.3285)" style="fill-rule:evenodd;clip-rule:evenodd;fill:#62CAEB;" width="319.575" height="244.17"/>
			<polygon id="XMLID_7531_" style="fill-rule:evenodd;clip-rule:evenodd;fill:#FBB444;" points="600.602,788.904 356.432,788.543 
				355.662,1310.015 599.633,1445.11 			"/>
			<polygon id="XMLID_7546_" style="fill-rule:evenodd;clip-rule:evenodd;fill:#16B79E;" points="599.582,1480.038 
				355.611,1344.943 355.134,1668.028 599.304,1668.388 			"/>
		</g>
		<g id="XMLID_1279_">
			<path id="XMLID_1277_" style="fill-rule:evenodd;clip-rule:evenodd;fill:#DD6080;" d="M467.212,1171.392
				c56.281-27.687,126.557-146.179,126.557-233.453c-1.756-66.725-42.834-136.85-129.881-141.382v-0.227
				c-1.209,0.019-2.417,0.038-3.607,0.076c-1.209-0.038-2.417-0.057-3.626-0.076v0.227
				c-87.047,4.533-128.105,74.657-129.862,141.382c0,87.274,70.276,205.766,126.538,233.453H467.212z"/>
			<path id="XMLID_1276_" style="fill-rule:evenodd;clip-rule:evenodd;fill:#E9708A;" d="M349.022,859.278
				c-0.378,4.098-0.623,8.197-0.737,12.295c0,100.003,80.531,235.757,144.99,267.467h14.259
				c44.742-48.557,86.235-134.036,86.235-201.101c-1.756-66.725-42.834-136.85-129.881-141.382v-0.227
				c-1.209,0.019-2.417,0.038-3.607,0.076c-1.209-0.038-2.417-0.057-3.626-0.076v0.227
				C405.114,799.238,369.702,824.924,349.022,859.278L349.022,859.278z"/>
			<path id="XMLID_1274_" style="fill-rule:evenodd;clip-rule:evenodd;fill:#D5EFFB;" d="M460.281,1006.175
				c42.003,0,76.282-34.26,76.282-76.282c0-42.022-34.279-76.282-76.282-76.282c-42.022,0-76.301,34.26-76.301,76.282
				C383.98,971.915,418.259,1006.175,460.281,1006.175L460.281,1006.175z"/>
		</g>
		<g>
			<polygon id="XMLID_190_" style="fill-rule:evenodd;clip-rule:evenodd;fill:#F69668;" points="1211.264,1211.519 
				1231.351,1203.825 1228.004,1177.541 1210.785,1179.464 			"/>
			<path id="XMLID_189_" style="fill-rule:evenodd;clip-rule:evenodd;fill:#F69668;" d="M1225.771,1187.798l4.624-8.815
				c2.87-7.212,12.435-18.271,8.45-21.476c-2.71-1.923-6.377,7.373-11.16,7.693c-8.928-3.686-1.594-29.811-9.087-32.214
				c-11-3.686-23.914,4.488-23.435,15.706c0,6.09,10.681,20.836,17.696,35.581L1225.771,1187.798z"/>
			<path id="XMLID_188_" style="fill-rule:evenodd;clip-rule:evenodd;fill:#EE4F88;" d="M1285.077,1320.984l31.885-33.978
				l-71.104-33.978c-3.667-21.316-7.493-42.632-11.159-63.949c-15.624-6.411-20.406,1.122-30.609,1.763
				c-1.913,33.978,7.652,54.012,12.435,76.129C1227.525,1293.257,1257.019,1305.438,1285.077,1320.984L1285.077,1320.984z"/>
			<path id="XMLID_187_" style="fill-rule:evenodd;clip-rule:evenodd;fill:#DCCDE4;" d="M994.286,1056.055l260.979,103.375
				c10.522,3.847,7.174,16.188-5.421,13.303l-271.341-53.531L994.286,1056.055z"/>
			<path id="XMLID_186_" style="fill-rule:evenodd;clip-rule:evenodd;fill:#7D80BC;" d="M994.286,1056.055
				c7.334,2.083,9.247,17.79,4.304,35.099c-4.783,17.149-14.667,29.49-21.841,27.407c-7.334-1.923-9.247-17.63-4.464-34.939
				C977.228,1066.312,986.953,1053.971,994.286,1056.055L994.286,1056.055z"/>
			<path id="XMLID_185_" style="fill-rule:evenodd;clip-rule:evenodd;fill:#62CAEB;" d="M987.91,1064.709
				c5.101,1.442,6.377,12.341,3.029,24.201c-3.348,11.86-10.044,20.355-15.145,18.912c-4.942-1.282-6.377-12.181-3.029-24.041
				C976.112,1071.761,982.967,1063.267,987.91,1064.709L987.91,1064.709z"/>
			<polygon id="XMLID_184_" style="fill-rule:evenodd;clip-rule:evenodd;fill:#F69668;" points="1149.407,1209.916 
				1169.495,1197.255 1160.407,1169.848 1142.392,1175.618 			"/>
			<path id="XMLID_183_" style="fill-rule:evenodd;clip-rule:evenodd;fill:#F69668;" d="M1160.088,1181.388l3.188-10.578
				c1.435-8.174,9.406-22.118,4.623-24.682c-3.348-1.442-5.42,9.136-10.522,10.578c-10.203-2.083-7.812-31.734-16.421-32.695
				c-12.595-1.763-24.711,9.937-21.841,21.797c1.116,6.571,15.783,20.034,26.464,34.458L1160.088,1181.388z"/>
			<path id="XMLID_182_" style="fill-rule:evenodd;clip-rule:evenodd;fill:#F69668;" d="M1351.558,1813.02l-21.044,15.546
				c-7.493,24.041-22,39.106-34.117,58.179l58.987-25.804L1351.558,1813.02z"/>
			<path id="XMLID_181_" style="fill-rule:evenodd;clip-rule:evenodd;fill:#F69668;" d="M1327.644,1778.561l32.842-1.923
				l-5.421,52.89c-2.232,5.93-24.233,9.456-24.552-0.962L1327.644,1778.561z"/>
			<path id="XMLID_180_" style="fill-rule:evenodd;clip-rule:evenodd;fill:#1B174F;" d="M1241.076,1900.689
				c-20.406-16.989,59.306,0.801,109.525-68.116c2.072-3.526,4.464-3.045,4.623-0.16c5.899,25.643,2.392,49.363,3.507,74.046
				l-4.783,0.641c-1.435-12.341-3.029-24.521-4.464-36.862c-6.218,13.944-33.16,30.932-44.32,31.573
				C1295.281,1903.413,1266.265,1901.17,1241.076,1900.689L1241.076,1900.689z"/>
			<path id="XMLID_179_" style="fill-rule:evenodd;clip-rule:evenodd;fill:#F69668;" d="M1253.511,1818.149l-21.044,15.546
				c-7.493,24.041-22,39.107-33.957,58.019l58.987-25.644L1253.511,1818.149z"/>
			<path id="XMLID_178_" style="fill-rule:evenodd;clip-rule:evenodd;fill:#F69668;" d="M1229.757,1783.69l32.682-1.923
				l-5.421,52.729c-2.232,6.09-24.073,9.616-24.552-0.802L1229.757,1783.69z"/>
			<path id="XMLID_177_" style="fill-rule:evenodd;clip-rule:evenodd;fill:#1B174F;" d="M1143.189,1905.657
				c-20.566-16.828,59.146,0.802,109.365-68.115c2.072-3.366,4.464-3.045,4.623-0.16c5.899,25.804,2.391,49.524,3.507,74.206
				l-4.624,0.641c-1.594-12.341-3.029-24.682-4.623-36.862c-6.218,13.943-33.16,30.932-44.32,31.573
				C1197.234,1908.382,1168.219,1906.138,1143.189,1905.657L1143.189,1905.657z"/>
			<path id="XMLID_176_" style="fill-rule:evenodd;clip-rule:evenodd;fill:#262B62;" d="M1325.093,1367.944l-98.843,92.797
				c-10.681,48.883-23.754,97.766-22.319,128.378l21.841,208.194c15.943-0.641,31.726-1.282,47.668-1.923l2.232-198.898
				l22.957-71.321l29.334,271.821l49.262-0.32l-8.768-325.993L1325.093,1367.944z"/>
			<path id="XMLID_175_" style="fill-rule:evenodd;clip-rule:evenodd;fill:#EF609A;" d="M1356.819,1235.239
				c-19.769-12.02-39.697-24.041-59.465-36.061c-18.653,6.732-48.624,10.899-55.799,20.034
				c-32.682,35.26-23.116,61.224-72.379-39.747c-11.797,1.603-17.696,5.449-26.783,15.386
				c14.986,30.933,19.768,127.577,100.756,109.466c-4.942,64.429-21.682,115.396-26.624,179.825
				c37.306,37.664,130.25,22.438,157.034,7.373C1378.182,1404.486,1369.094,1263.928,1356.819,1235.239L1356.819,1235.239z"/>
			<path id="XMLID_174_" style="fill-rule:evenodd;clip-rule:evenodd;fill:#F69668;" d="M1360.167,1133.626l-66.321-25.323
				c-14.348,40.549-22.798,84.784,4.783,93.278C1328.919,1211.198,1349.645,1170.329,1360.167,1133.626L1360.167,1133.626z"/>
			<path id="XMLID_173_" style="fill-rule:evenodd;clip-rule:evenodd;fill:#1B174F;" d="M1301.179,1135.55
				c-11.479-6.411-17.058-10.578-18.334-22.438c-2.232-22.758,19.45-29.49,37.624-23.88c5.58,1.763,13.551,2.565,23.276,5.93
				c26.943,9.296,31.088,42.472,19.769,62.987c-12.276,22.118-16.899,19.072-14.03,45.838c2.71,26.605,30.769,53.852-15.942,72.443
				c-40.016,16.027-84.973-23.881-50.378-72.764c12.275-17.309,45.595-37.984,29.334-59.141
				C1311.064,1142.602,1301.339,1135.71,1301.179,1135.55L1301.179,1135.55z"/>
			<path id="XMLID_172_" style="fill-rule:evenodd;clip-rule:evenodd;fill:#F69668;" d="M1309.788,1168.245l-0.319-15.226
				c2.232-4.808,7.971-9.135,12.435-2.725C1326.049,1158.629,1313.774,1166.162,1309.788,1168.245L1309.788,1168.245z"/>
		</g>
		<g id="XMLID_8385_">
			<g id="XMLID_8389_">
				<polygon id="XMLID_8383_" style="fill:#8DAFDB;" points="1337.362,475.561 1252.575,412.992 1341.334,347.593 1344.137,351.397 
					1260.536,412.996 1340.168,471.76 				"/>
			</g>
			<path id="XMLID_8380_" style="fill-rule:evenodd;clip-rule:evenodd;fill:#8DAFDB;" d="M1337.633,492.37
				c11.24,0,20.411-9.167,20.411-20.411c0-11.24-9.171-20.411-20.411-20.411c-11.243,0-20.411,9.171-20.411,20.411
				C1317.222,483.203,1326.39,492.37,1337.633,492.37L1337.633,492.37z"/>
			<path id="XMLID_8379_" style="fill-rule:evenodd;clip-rule:evenodd;fill:#8DAFDB;" d="M1337.633,375.008
				c11.24,0,20.411-9.167,20.411-20.411c0-11.24-9.171-20.411-20.411-20.411c-11.243,0-20.411,9.171-20.411,20.411
				C1317.222,365.841,1326.39,375.008,1337.633,375.008L1337.633,375.008z"/>
			<path id="XMLID_8384_" style="fill-rule:evenodd;clip-rule:evenodd;fill:#8DAFDB;" d="M1256.556,433.405
				c11.243,0,20.411-9.167,20.411-20.411c0-11.24-9.167-20.411-20.411-20.411c-11.24,0-20.411,9.171-20.411,20.411
				C1236.145,424.237,1245.316,433.405,1256.556,433.405L1256.556,433.405z"/>
		</g>
	</g>
</g>
</svg>
