<svg id="Layer_1" data-name="Layer 1" xmlns="http://www.w3.org/2000/svg" viewBox="0 0 1920 1080"><defs><style>.cls-1{fill:#d0ecf4;}.cls-2{fill:#3066be;}.cls-3{fill:#312553;}.cls-4{fill:#1e1735;}.cls-5{fill:#fff;}.cls-6{fill:#f79556;}.cls-7{fill:#7764a6;}.cls-8{fill:#fccc44;}.cls-9{fill:#ec7d40;}.cls-10{fill:#d65b5b;}.cls-11{fill:#e30613;}.cls-12{fill:#d66730;}.cls-13{fill:#992525;}.cls-14{fill:#d5c7f4;}</style></defs><rect class="cls-1" width="1920" height="1080"/><path class="cls-2" d="M423.9,597.35c9.36-10.12,14.84-23.45,32.1-40.42,11-10.8,79.75-18.33,83.88-96.93a90.36,90.36,0,0,0-2.06-24.49C510.68,317.1,345.82,283,246.9,383.42c-24.43,24.8-78.1,102.48-19.93,192.7C267.11,638.38,361.05,665.25,423.9,597.35Z"/><ellipse class="cls-3" cx="370.42" cy="831.88" rx="118.73" ry="13.47"/><path class="cls-4" d="M364.59,342.9c-1.32-.25-1.9-.79-2.87-.9-7.28-.81-16.05,5.91-19.39,9.49-7.89,8.44-10.51,20.58-10.61,28.78a67.32,67.32,0,0,0,4.84,26.06c3,7.1,11.57,21.69,26.37,27.85,12.3,5.11,23.54,1.44,27,.31,4.15-1.35,10.15-3.4,15.26-9.46a30.65,30.65,0,0,0,7-16.93,39.42,39.42,0,0,0-5.28-22.83c-3.43-6.19-8.85-9-14.84-18.12-4.11-6.23-1.12-16.81-18.39-23.71C367.91,341.12,366,343.16,364.59,342.9Z"/><path class="cls-4" d="M407.55,424.67a29,29,0,0,0,4.13-5.45,30.38,30.38,0,0,0,2.84-6.31,29.56,29.56,0,0,0,1.28-6.86,35.65,35.65,0,0,0-.18-7,36.73,36.73,0,0,0-1.56-6.85,43.81,43.81,0,0,0-2.77-6.45c-.28-.51-.56-1-.85-1.53l-.45-.75c-.14-.25-.32-.51-.48-.76a24.73,24.73,0,0,0-2.18-2.88,66.67,66.67,0,0,0-4.94-4.88c-1.66-1.52-3.26-3.05-4.75-4.66-.39-.4-.75-.81-1.12-1.22l-.54-.62-.53-.64c-.35-.42-.71-.84-1-1.28l-.5-.65-.26-.33-.22-.32a40.72,40.72,0,0,1-3.11-5.73c-.5-1-1-2.06-1.59-3.08-.26-.51-.59-1-.89-1.51s-.65-1-1-1.48a26.1,26.1,0,0,0-4.85-5.16,31.22,31.22,0,0,0-2.92-2l-.76-.44a7.08,7.08,0,0,0-.77-.41l-1.58-.75a14.88,14.88,0,0,0-1.6-.65l-1.62-.6a22.74,22.74,0,0,0-3.36-.88,11.29,11.29,0,0,0-3.48-.12c-1.16.14-2.22.57-3.35.61a6.91,6.91,0,0,0,1.7,0,16.14,16.14,0,0,1,1.68-.11,11.19,11.19,0,0,1,3.25.5,29.21,29.21,0,0,1,3.11,1.18l1.5.73a12.81,12.81,0,0,1,1.47.77l1.43.83a6.41,6.41,0,0,1,.7.45l.67.47a31.26,31.26,0,0,1,2.57,2,25.51,25.51,0,0,1,4.12,5,44,44,0,0,1,3,5.85,40.31,40.31,0,0,0,3.18,6.28c.09.13.17.26.26.38l.25.35.53.7c.34.47.7.93,1.07,1.38l.54.68.57.66c.38.44.75.89,1.15,1.31,1.57,1.72,3.24,3.32,4.91,4.87s3.31,3,4.75,4.62a23.42,23.42,0,0,1,2,2.5c.14.22.29.43.43.66l.43.7c.29.48.56,1,.84,1.42a45.06,45.06,0,0,1,2.78,5.93,38.15,38.15,0,0,1,1.73,6.3,37.59,37.59,0,0,1,.57,6.54,30.59,30.59,0,0,1-2.81,12.84,31.34,31.34,0,0,1-1.53,3C408.82,422.79,408.2,423.74,407.55,424.67Z"/><path class="cls-5" d="M405,420.72s5.55,1.08,8.06,12.56c2,9,11.16,45.24,12.66,54.16,1.33,7.89,4,15.11.48,23.3-4,9.19-7,10.47-10.84,9.29-6.68-2.09-12.54-10.17-14-21S399.62,422.09,405,420.72Z"/><path class="cls-5" d="M318,425.52c-1.1-1.17-5.79,2.58-7.88,8.65s-4.1,17.08-4.68,30.28c-.59,13.4,1,35.47,2.09,42.28,1.4,9,6,23.1,11.84,20.38s13-34.56,12.44-45.92C331.37,472.47,329,437.2,318,425.52Z"/><path class="cls-6" d="M440,787.37H419c1.73,4.16,3.44,8,4.39,11.24.44,1.51.77,3.19,1.15,4.87a5.48,5.48,0,0,1-.05,2.7c-.45,1.68-.91,3.35-1.24,4.58-.91,3.47-1.34,7.88.55,9.68,1.39,1.33,26.88-8.66,26.78-9.7h0C450.17,807.23,443.87,802,440,787.37Z"/><path class="cls-6" d="M343.17,795.17c-.07-1.36-.52-3.13-1.09-7.8h-17.7c.94,4.23,1.62,7.17,2.26,9.28a36.89,36.89,0,0,1,.32,6.11,16.07,16.07,0,0,1-3,8.39c-1.65,2.6-7,10.21-8.39,11.83s-1.08,4.41-.76,7.53,3.55,4.08,7.86,5.16a37.09,37.09,0,0,0,15.27-.22,9.89,9.89,0,0,0,5.59-4.08c1.93-2.58,1.4-9.14,1.61-16.24a71.19,71.19,0,0,0-1.72-19C343.33,795.8,343.25,795.49,343.17,795.17Z"/><path class="cls-7" d="M329.27,837.44a31.63,31.63,0,0,1-7.32-.74c-4-1-8.11-2-8.5-5.74l0-.2c-.34-3.32-.64-6.19.91-8s6.92-9.46,8.71-12.29a16.72,16.72,0,0,0,2.85-6.69,2.4,2.4,0,0,1,.76-1.58,10,10,0,0,1,5.47-2h.59a11.93,11.93,0,0,1,9.95,5.78,2.23,2.23,0,0,0,1.86,1.35c.4,0,1.3-.32,1.34.64.1,2.27.11,4.57,0,6.85-.05,1.7-.06,3.37-.07,5,0,5.37-.06,10-1.69,12.19a10.66,10.66,0,0,1-6.06,4.41,35.63,35.63,0,0,1-8.82,1Z"/><path class="cls-5" d="M314.5,825.28a3.88,3.88,0,0,0,.73.73,7,7,0,0,0,.83.6,10.84,10.84,0,0,0,1.81.89,18.17,18.17,0,0,0,3.92,1c1.33.18,2.72.28,4.08.37.68,0,1.37.07,2.05.09s1.37,0,2.05,0a39.52,39.52,0,0,0,8.12-.89,24.15,24.15,0,0,0,3.9-1.22,16.45,16.45,0,0,0,1.85-.88,8,8,0,0,0,.87-.56l.2-.15.09-.08,0,0h0s0,0,0,.05,0,0,0,0h0a3,3,0,0,0-.4.32,2.57,2.57,0,0,1,.34-.4l0,0h0s0,0,.06,0,0,0,0,.06v0l0,0-.08.1-.18.2a8.73,8.73,0,0,1-.79.71,14.72,14.72,0,0,1-1.77,1.18,20.65,20.65,0,0,1-3.91,1.65,30.91,30.91,0,0,1-8.37,1.26h-1.06l-1.06,0c-.7,0-1.41-.06-2.11-.12s-1.4-.13-2.1-.22-1.39-.2-2.09-.35a15.2,15.2,0,0,1-4-1.46,9.8,9.8,0,0,1-1.76-1.24A5.25,5.25,0,0,1,314.5,825.28Z"/><path class="cls-5" d="M328.52,806.91a.2.2,0,0,1-.17-.35,4.84,4.84,0,0,1,.46-.33,5.94,5.94,0,0,1,1.22-.58,6.42,6.42,0,0,1,2.69-.29c.22,0,.45.06.67.11s.44.1.65.16a6.77,6.77,0,0,1,1.24.52,7.27,7.27,0,0,1,1.54,1.09.2.2,0,0,1-.2.33c-.58-.18-1.14-.36-1.7-.51-.39-.11-.78-.2-1.17-.28-.19,0-.38-.08-.58-.1s-.39,0-.58-.08a11.51,11.51,0,0,0-4.07.31Z"/><path class="cls-5" d="M326.91,810.5a.19.19,0,0,1-.17-.34,5.74,5.74,0,0,1,.5-.36,6.56,6.56,0,0,1,1.34-.63,7.05,7.05,0,0,1,3-.33,7.55,7.55,0,0,1,2.84.85,7.83,7.83,0,0,1,1.69,1.2.2.2,0,0,1-.2.33c-.64-.23-1.25-.45-1.86-.62a13.07,13.07,0,0,0-2.59-.52,11.41,11.41,0,0,0-2.61,0A14.52,14.52,0,0,0,326.91,810.5Z"/><path class="cls-5" d="M325.26,814.16a.2.2,0,0,1-.17-.35c.2-.16.41-.31.63-.46a6.86,6.86,0,0,1,1.45-.68,7.7,7.7,0,0,1,3.2-.39l.4.05.41.06.39.09.4.1.19.06.19.07.38.14a6.82,6.82,0,0,1,.72.35,7.94,7.94,0,0,1,1.9,1.39.2.2,0,0,1-.21.33c-.72-.26-1.41-.52-2.1-.72l-.35-.1-.35-.09-.35-.08-.16,0h0l-.16,0-.35-.07-.35,0-.35,0c-.12,0-.23,0-.35,0a12.77,12.77,0,0,0-2.83.06A15.93,15.93,0,0,0,325.26,814.16Z"/><path class="cls-5" d="M323.37,817.87a.2.2,0,0,1-.19-.34q.35-.27.72-.51a7.75,7.75,0,0,1,1.65-.77,8.63,8.63,0,0,1,3.64-.39,9.9,9.9,0,0,1,1.8.36,10,10,0,0,1,1.69.7,9.45,9.45,0,0,1,2.17,1.53.2.2,0,0,1-.2.33c-.81-.31-1.6-.61-2.39-.86-.53-.17-1.07-.31-1.6-.43l-.4-.08-.4-.07c-.27-.05-.54-.07-.81-.11a13.54,13.54,0,0,0-3.24.07A15.63,15.63,0,0,0,323.37,817.87Z"/><path class="cls-7" d="M449.31,831.25c.58,0,1.18,0,1.76.06a49.35,49.35,0,0,0,11-.88,58.39,58.39,0,0,0,8.08-1.76l.52-.12a3,3,0,0,0,1.68-.78c2-2.15-.59-7.12-1-7.75a9.88,9.88,0,0,0-1.43-1.58,10.25,10.25,0,0,0-3.55-2l-.08,0c-1.32-.46-2.14-1.22-5.59-4.4-.65-.6-1.4-1.3-2.27-2.09-4-3.64-6-5.47-7.27-6.55a53,53,0,0,0-4.44-3.29c-.82-.54-3-1.34-6.81-.39-3.09.77-4.62,3.16-6.47,4.78-1.21,1.06-2,1.84-2.55,2.41a5,5,0,0,1-2.24,1.61,4.44,4.44,0,0,1-1.67.23,9.51,9.51,0,0,1-1.5-.24,18.29,18.29,0,0,0-2-.33.32.32,0,0,0-.22.06.47.47,0,0,0-.16.18c-.26.72-.6,1.44-.93,2.13a10.3,10.3,0,0,1-.9,1.62,12.11,12.11,0,0,0-.69,1.19c0,.05-2.1,5.61-.08,9,.65,1.09,1.64,1.47,4.29,2.5l1.18.46a113,113,0,0,0,12.49,4.28,57.58,57.58,0,0,0,10.89,1.69Z"/><path class="cls-5" d="M456.65,810.71a.24.24,0,0,0-.06-.48,12,12,0,0,0-1.69.07,14.9,14.9,0,0,0-3,.68,14.25,14.25,0,0,0-2.8,1.3,13.48,13.48,0,0,0-1.39,1,.25.25,0,0,0,.25.42l1.53-.65c.92-.37,1.83-.72,2.76-1s1.87-.6,2.82-.86Z"/><path class="cls-5" d="M453.69,807.42a.24.24,0,0,0-.06-.48,12,12,0,0,0-1.69.07,14.9,14.9,0,0,0-3,.68,14.25,14.25,0,0,0-2.8,1.3,13.48,13.48,0,0,0-1.39,1,.25.25,0,0,0,.25.42l1.53-.65c.91-.37,1.83-.72,2.76-1s1.87-.61,2.82-.87Z"/><path class="cls-5" d="M449.92,804.48a.24.24,0,0,0-.05-.48,13.57,13.57,0,0,0-1.69.07,14.84,14.84,0,0,0-3,.68,13.91,13.91,0,0,0-2.79,1.31,10.52,10.52,0,0,0-1.39,1,.25.25,0,0,0,.25.42c.51-.22,1-.44,1.52-.64.92-.38,1.84-.73,2.76-1s1.87-.61,2.82-.87Z"/><path class="cls-5" d="M446.55,801.57a.25.25,0,0,0-.06-.49,15.92,15.92,0,0,0-1.69.07,14.9,14.9,0,0,0-3,.68,13.74,13.74,0,0,0-2.8,1.31,13.39,13.39,0,0,0-1.39,1,.25.25,0,0,0,.25.42c.51-.22,1-.44,1.53-.64.91-.38,1.83-.72,2.76-1s1.87-.61,2.82-.87Z"/><path class="cls-5" d="M468.7,819.2a31.05,31.05,0,0,0-5.91.69c-1,.2-1.94.43-2.91.67s-1.92.56-2.85.83a25.38,25.38,0,0,1-2.82.62c-1,.15-1.92.26-2.89.34s-1.93.13-2.9.13c-.48,0-1,0-1.44-.06s-1,0-1.44-.1a64.09,64.09,0,0,1-11.44-2.44c-3.76-1.12-7.49-2.41-11.2-3.79A71.29,71.29,0,0,0,433.75,821l1.41.49,1.43.45c.48.15,1,.29,1.44.41l1.44.4,1.47.33c.48.12,1,.21,1.47.29s1,.18,1.49.25l1.5.18c.5.07,1,.07,1.51.1s1,0,1.52,0c1,0,2-.07,3-.18s2-.26,3-.45a20.77,20.77,0,0,0,2.93-.8l2.79-1c.93-.32,1.87-.62,2.81-.89A44.83,44.83,0,0,1,468.7,819.2Z"/><path class="cls-8" d="M396,540.4s0,.18,0,.51C396.52,540.65,396,540.4,396,540.4Z"/><path class="cls-3" d="M431.05,732.28c-4.9-23.4-10.69-44.09-14.58-53-.91-5.63-1.79-11.52-2-15.57-.43-8.5-4.4-32.28-6-42.74-2-13.31-6.26-29.76-8.39-38.05s-3.85-20-3.64-25.73c.18-5-.28-14-.4-16.28-.78.45-4.3.92-17.51.25-21-1.06-23.47-1.4-38.14-6.93s-16.87-8.07-16.87-8.07c-.42.64-8.59,21.47-10.5,27.21s-6.38,25.61-6.71,35.08a312.2,312.2,0,0,0,2.06,50.39c.92,6.81,4.12,41.33,4.27,55.18a119.43,119.43,0,0,0-1.49,25.48c.38,6.16,1.41,14.14,2.71,22.5,1.67,15.81,4.87,46.27,5.05,48.81.25,3.44,11.61,3.61,17.38,2.82,5.53-.75,9.14-1.75,10.81-2.8a2.06,2.06,0,0,0,1-2l.07-114.36c.1-.67.19-1.3.26-1.87,1.07-8.08,4.62-37.84,5.26-43.8s3.68-25.61,3.68-25.61,1.36,5.55,2.48,11.45c4.95,26.07,22.33,76,25.31,84.54a28.24,28.24,0,0,0,1.08,2.65l28.88,93a102.47,102.47,0,0,0,16.42-2c9.84-1.9,11.86-4.19,11.86-4.19Z"/><path class="cls-4" d="M325.06,552l-3,4.67c-2.75,4.27-5.48,8.58-8,13a138,138,0,0,0-7,13.62c3.11-4.08,6-8.22,9-12.38s5.79-8.36,8.56-12.64c1.11-1.7,2.16-3.43,3.19-5.16C326.84,552.77,325.94,552.4,325.06,552Z"/><path class="cls-5" d="M314.55,430.65a5.37,5.37,0,0,1,3.25-5.77,48.68,48.68,0,0,1,5.7-1.89c8.27-2.25,13.72-2.72,20.73-5.58,7.29-3,13.85-7.84,24.8-4.83a219.84,219.84,0,0,0,29.29,5.78c5.26.54,9.12,3.93,10.22,9.67,4.38,22.88-10.45,110.73-11.24,120.81s-35.81,13-58.16,7.62-24.81-8.15-22.58-15.33,8.14-17.8,10.76-36.49c3.88-27.72-7.17-53.91-9.55-63.4C316.55,436.39,314.91,433.08,314.55,430.65Z"/><path class="cls-9" d="M347.7,385.73s-.23,11.22.17,18.49.81,12.27,1.56,14.51c1.21,3.6,3.94,6.53,10.62,7.18,3.48.34,9.3-.47,12-3.77,2.23-2.75,1.1-9.64,1.76-17.65s.94-16.49.63-19.83S355.83,381,347.7,385.73Z"/><path class="cls-6" d="M361.3,349.73c-6,.54-12.8,6-14.32,11.88a103.23,103.23,0,0,0-2.55,13.57,41.83,41.83,0,0,0,3.46,22,26.42,26.42,0,0,0,11,12c1.74.94,5.1,1.59,7.56.34,3.68-1.86,7-3.34,10.52-7.57a29.51,29.51,0,0,0,7.35-16.45c.44-3.35.41-7.06.91-10,1.61-9.22-2.07-14.77-5.05-19.47C378.28,353,371.54,348.8,361.3,349.73Z"/><path class="cls-4" d="M363.27,376.88a17,17,0,0,1-1.88-1.25c-.57-.42-1.12-.81-1.67-1.17s-1.08-.71-1.64-1a7.06,7.06,0,0,0-1.8-.84c-.33-.1-.65-.19-1-.26a9.33,9.33,0,0,0-1-.18,8.12,8.12,0,0,0-2,0,6.31,6.31,0,0,0-2,.58c-.64.3-1.25.7-1.91,1.06l-.12-.18.81-.74c.28-.24.57-.49.87-.71a7.4,7.4,0,0,1,2.08-1.05,8.42,8.42,0,0,1,2.33-.34,12,12,0,0,1,2.32.18,13.89,13.89,0,0,1,2.32.6,6.1,6.1,0,0,1,2.07,1.26,7.87,7.87,0,0,1,1.48,1.85,8.81,8.81,0,0,1,.9,2.14Z"/><path class="cls-10" d="M357.75,398.9a.36.36,0,0,1,.28-.54,46.27,46.27,0,0,1,7.13.14,28.22,28.22,0,0,1,5.06,1,.35.35,0,0,1,.2.52,6.44,6.44,0,0,1-6.42,3.33C360.51,403,358.45,400.09,357.75,398.9Z"/><path class="cls-4" d="M360.45,345.43a3.45,3.45,0,0,1,.5.27c1.58,1,2.83,4.23,2.89,8.13a17.65,17.65,0,0,1-.63,5.08c-2.2,8.34-13.09,7.56-17.08,15.39-3.37,6.61-5.05,2.7-5.57-.15-2.25-12.3-2.44-21.78,15.25-28.69A8.14,8.14,0,0,1,360.45,345.43Z"/><path class="cls-4" d="M363.13,346.12c1.8-.65,10.18-3.65,20.58,8.86,5.81,7,4.43,16.39,4,19.95-.36,2.79-2.33,4.43-2.66,4.43s.54-3.28-2.13-8c-5.2-9.12-18.05-4-22.22-18-.49-1.67-.12-3.57,0-5.71C360.78,346.65,362.16,346.47,363.13,346.12Z"/><path class="cls-4" d="M371.59,376.37a6.12,6.12,0,0,1,1.21-1.44,7.75,7.75,0,0,1,1.49-1,4.75,4.75,0,0,1,1.86-.53H377l.23,0,.92.16a12,12,0,0,1,3.42,1.15,11.79,11.79,0,0,1,1.53.9,7.74,7.74,0,0,1,1.33,1.16l-.15.18a6.59,6.59,0,0,0-.75-.38,7.28,7.28,0,0,0-.77-.31,12.56,12.56,0,0,0-1.59-.46,15.38,15.38,0,0,0-3.2-.39,5.11,5.11,0,0,0-.78.05l-.19,0h-.09l-.06,0-.28.1a12.17,12.17,0,0,1-1.4.45c-.52.13-1.06.25-1.62.34a8.79,8.79,0,0,1-1.82.14Z"/><path class="cls-4" d="M372.13,381.12c.84.19,1.54.37,2.23.54a9.21,9.21,0,0,1,1,.31,6,6,0,0,0,1.59.38l.28,0h.27a5.88,5.88,0,0,0,1.11,0,4.5,4.5,0,0,0,1.09-.23l.27-.09.25-.12a2.59,2.59,0,0,0,.48-.3l.12.09a3,3,0,0,1-.9.86,5.14,5.14,0,0,1-1.13.55,7.36,7.36,0,0,1-1.23.3l-.31,0-.31,0c-.21,0-.42,0-.63,0-.43,0-.86,0-1.29,0a4.8,4.8,0,0,1-.64-.12,3.16,3.16,0,0,1-.6-.25,4.19,4.19,0,0,1-1.06-.76,2.94,2.94,0,0,1-.73-1.12Z"/><path class="cls-4" d="M361.08,380.1a4.16,4.16,0,0,1-1.21,1,5.89,5.89,0,0,1-1.45.59,4.37,4.37,0,0,1-1.57.14,10.16,10.16,0,0,1-1.56-.26,11.42,11.42,0,0,1-1.47-.45,11.64,11.64,0,0,1-1.37-.68,6.8,6.8,0,0,1-1.22-.91,4.37,4.37,0,0,1-.91-1.22l.14-.07a2.9,2.9,0,0,0,.5.49,4.57,4.57,0,0,0,.57.41,7.28,7.28,0,0,0,1.26.6,8.58,8.58,0,0,0,1.34.38,11,11,0,0,0,1.36.22,6.68,6.68,0,0,0,1.34-.05c.44-.06.87-.11,1.32-.13.9-.06,1.82-.16,2.85-.2Z"/><path class="cls-6" d="M340.05,377.17c.13-.41.51-2.94,3.15-3s7,5.25,6.3,8.85-1.65,7.66-4.49,7.09S338.6,382.06,340.05,377.17Z"/><path class="cls-9" d="M393.53,471.72s-8.1-11.7-11.63-13.12-15-4.33-16.95-3.47-2.11,2.73-.13,3.72-.55,13.55,1.43,15.65,10.83,6.38,14.35,7.18,5.88,2,10.27,1.18S395.45,475.93,393.53,471.72Z"/><path class="cls-4" d="M356,483.76H375.4a1.53,1.53,0,0,0,1.54-1.52l.45-40.93c0-3.28-2.36-3.37-3.21-3.37H356.85c-1.24,0-2.94.27-2.94,3.51l.57,40.8A1.53,1.53,0,0,0,356,483.76Z"/><path class="cls-11" d="M356,484.64H375.4a1.54,1.54,0,0,0,1.54-1.52l.45-41.5a1.54,1.54,0,0,0-1.54-1.55h-20.4a1.54,1.54,0,0,0-1.54,1.55l.57,41.5A1.53,1.53,0,0,0,356,484.64Z"/><rect class="cls-4" x="369.47" y="442.92" width="5.16" height="5.16" rx="2.08" transform="translate(744.11 890.99) rotate(180)"/><path class="cls-6" d="M335.12,478.94s4.48-5.67,6.21-10.14,2.1-6.49,4.11-7.95,5-5,7.4-5.66,8.59-2.38,10.14-1.92,1.46,1.62,1,2.26a9.48,9.48,0,0,1-4.56,2.4,19,19,0,0,0-7.67,3.93c-2.93,2.37,1.55-.19,3.19-.83s14.43-2.1,16.17-1.55,2.12,1.28,2.1,2.06c0,1.34-1.65,1.69-.82,1.87s2,.69,2.12,1.62a2.63,2.63,0,0,1-.64,2.55,4.78,4.78,0,0,1-1.83,1.14c-.32.2.57.84.76,1.33a2.18,2.18,0,0,1-.62,2.64c-1.16,1.08-8.68,3.61-11.12,4.31a21.82,21.82,0,0,0-6.79,3.74c-1.75,1.36-5.09,4.73-7.7,5.75a16.81,16.81,0,0,1-6.36,1.48C337.83,488.06,333.06,482.16,335.12,478.94Z"/><path class="cls-12" d="M351.37,468.85c.89-.22,1.75-.49,2.59-.77s1.69-.57,2.52-.87,1.64-.63,2.44-.93l.6-.21c.19-.05.38-.11.61-.16l1.3-.28,2.62-.52,2.63-.53q2.63-.52,5.25-1.08l0-.14c-1.79.16-3.56.35-5.34.54l-2.66.3-2.66.33-1.34.17c-.22,0-.47.07-.71.11l-.69.16a15.65,15.65,0,0,0-2.56.95c-.82.39-1.62.81-2.39,1.27a20.24,20.24,0,0,0-2.25,1.53Z"/><path class="cls-12" d="M353.51,474.52c.81-.15,1.58-.35,2.35-.56s1.52-.46,2.27-.72,1.48-.53,2.2-.82c.35-.14.72-.28,1.06-.39l.26-.07.29-.08.59-.14,2.32-.58,2.31-.61c1.53-.42,3.07-.85,4.59-1.3l0-.13c-1.57.23-3.14.49-4.71.75l-4.7.78-.59.09-.29,0-.32.05c-.43.08-.82.18-1.22.29a15.74,15.74,0,0,0-2.27.83c-.73.34-1.44.7-2.14,1.1a17.79,17.79,0,0,0-2,1.34Z"/><path class="cls-13" d="M359.36,399.35a8.2,8.2,0,0,0,1.3.71,12.39,12.39,0,0,0,1.4.51,10.45,10.45,0,0,0,1.47.34,12.34,12.34,0,0,0,1.49.16,10.14,10.14,0,0,0,3-.19l.36-.09.36-.12a6,6,0,0,0,.71-.26c.23-.09.46-.21.68-.31s.44-.25.65-.39l0-.07c-.25,0-.49.08-.73.12l-.36.06-.36.06c-.24,0-.48.09-.72.12s-.47.08-.71.11l-.36.06-.35.05-.35,0-.18,0-.18,0a13.56,13.56,0,0,1-1.43.13,13.86,13.86,0,0,1-1.44-.05,13.66,13.66,0,0,1-1.43-.2,10.8,10.8,0,0,1-2.76-.92Z"/><path class="cls-4" d="M350.08,652.25c1.32-5.34,2.45-10.67,3.56-16s2.14-10.69,3-16.08c.46-2.71.81-5.41,1.16-8.12s.67-5.42,1-8.14c.56-5.44,1-10.88,1.17-16.38-1.45,5.31-2.58,10.65-3.62,16-.52,2.68-1,5.36-1.45,8.05l-1.31,8.06c-.9,5.37-1.74,10.77-2.37,16.2A144.79,144.79,0,0,0,350.08,652.25Z"/><path class="cls-14" d="M400.7,498.8a60.23,60.23,0,0,1-1.1-7.06l-.18-1.78-.15-1.78c-.1-1.18-.18-2.37-.26-3.55q-.42-7.12-.41-14.25t.42-14.24c.07-1.19.15-2.37.25-3.56s.19-2.37.31-3.55.25-2.37.4-3.55.32-2.36.51-3.53c.23,4.76.31,9.49.38,14.23s.08,9.47.08,14.2,0,9.47-.09,14.2l-.11,7.11c0,1.18,0,2.36-.06,3.55V497C400.67,497.61,400.7,498.2,400.7,498.8Z"/><path class="cls-14" d="M328.81,500.75l.45-4.05c.14-1.34.29-2.69.41-4,.25-2.69.46-5.38.52-8.05,0-.33,0-.66,0-1s0-.67,0-1,0-.66,0-1,0-.64-.06-1l-.16-2c-.05-.67-.11-1.34-.17-2l-.18-2c-.06-.67-.12-1.34-.19-2l-.19-2-.21-2c-.57-5.36-1.24-10.71-2.06-16s-1.88-10.61-3.25-15.88c.29.62.55,1.25.83,1.87l.4.94c.13.32.24.64.36,1,.25.63.48,1.27.71,1.92s.43,1.29.64,1.94c.84,2.6,1.5,5.24,2.12,7.9a144.55,144.55,0,0,1,2.58,16.14c.14,1.35.27,2.71.38,4.06.06.68.1,1.36.15,2s.09,1.36.13,2c.07,1.36.14,2.72.17,4.08,0,.33,0,.69,0,1s0,.7,0,1,0,.69-.05,1-.05.69-.08,1a72.89,72.89,0,0,1-1.22,8.12c-.27,1.33-.58,2.66-.91,4-.17.66-.34,1.32-.52,2S329,500.1,328.81,500.75Z"/><path class="cls-6" d="M335.51,478.74s-4.63,6.07-8.38,10.89-7.93,7.74-11,10.89c-5.8,6-5.62,10.35-5.8,12.22S313,530,320.17,527.29s10.53-9.1,12.94-15.35,6.34-17.23,8.48-21.6,8.84-5.44,4-9.37S338.1,478.11,335.51,478.74Z"/><path class="cls-5" d="M318.5,528.56a5.35,5.35,0,0,0,1.88-.36c7.6-2.85,11.11-9.69,13.55-16l.8-2.1h0a.62.62,0,0,0-.76-.81h0a9.1,9.1,0,0,1-2.76.45c-3.11,0-5.82-1.8-8.06-5.34-1.62-2.56-1.82-6-1.71-8.44h0a.61.61,0,0,0-1-.48h0l-1.15,1c-1.31,1.17-2.54,2.27-3.64,3.4-5.58,5.75-5.9,10.19-6.05,12.32,0,.19,0,.36,0,.52-.15,1.58,1.37,9.94,4.85,13.76a5.5,5.5,0,0,0,4.11,2.06Z"/><path class="cls-14" d="M319.72,528c.41-.32.82-.6,1.23-.88l1.18-.89.56-.47c.18-.16.38-.3.56-.47.34-.33.71-.63,1-1a30.3,30.3,0,0,0,3.64-4.35C329,518.38,330,516.72,331,515l1.47-2.58c.51-.85,1-1.75,1.61-2.57-.06.51-.14,1-.23,1.51,0,.25-.09.5-.14.75l-.17.74a29.6,29.6,0,0,1-.86,2.92,23.16,23.16,0,0,1-2.81,5.49,17.36,17.36,0,0,1-4.4,4.44A13,13,0,0,1,319.72,528Z"/><path class="cls-14" d="M318.61,496.27a41.82,41.82,0,0,1-2.83,3.89c-.94,1.23-1.88,2.43-2.73,3.67a32.6,32.6,0,0,0-2.33,3.83c-.35.67-.65,1.37-.94,2.08-.08.18-.15.37-.22.55l-.21.56c-.14.37-.27.76-.43,1.14a10.16,10.16,0,0,1,.07-5,12.53,12.53,0,0,1,.86-2.38l.28-.56.31-.55.32-.54.35-.51a18.72,18.72,0,0,1,3.36-3.63,22.42,22.42,0,0,1,2-1.42A17.9,17.9,0,0,1,318.61,496.27Z"/><path class="cls-9" d="M387.11,478c.33.7,3.12,9.59,4.74,13.25s5.6,13.26,9.81,17.89,10.62,12.07,15.62,11.42c4.17-.54,10-12,9.27-16.59-1.09-6.71-6.16-9.35-11.94-13.71a137.79,137.79,0,0,1-11.55-10.1c-5.95-5.69-7-6.52-9.92-9.38S383.55,470.44,387.11,478Z"/><path class="cls-5" d="M416.94,521.56a5.68,5.68,0,0,0,.72,0c1.92-.25,3.78-2.26,5-3.9,2.91-3.91,5.65-10.43,5.08-13.91-1-6.14-5.15-9.15-10-12.63-.83-.61-1.7-1.23-2.58-1.89-1.36-1-2.86-2.25-4.44-3.6h0a.62.62,0,0,0-1,.65h0a14.28,14.28,0,0,1,.67,5.24c-.39,4.84-2.39,7.9-6.3,9.62a11,11,0,0,1-4.41.94,10,10,0,0,1-2.69-.36h0a.62.62,0,0,0-.71.9h0a37.81,37.81,0,0,0,4.7,7l.68.75C406,515.05,411.88,521.56,416.94,521.56Z"/><path class="cls-14" d="M427.08,503.47a27.88,27.88,0,0,0-1.38-2.85,16.89,16.89,0,0,0-1.75-2.47,30.31,30.31,0,0,0-4.48-4.1l-1.23-1-1.25-1c-.41-.33-.84-.66-1.24-1l-.62-.52-.61-.52c-.81-.7-1.59-1.46-2.33-2.24a26.23,26.23,0,0,1-2.09-2.49c1.94,1,3.72,2.15,5.53,3.25.91.55,1.78,1.13,2.67,1.72.44.29.88.61,1.32.91s.88.64,1.31,1l.63.51c.21.18.42.35.63.54l.61.56.59.59c.19.2.38.41.56.63s.37.42.54.65.35.44.5.68l.46.71a12.49,12.49,0,0,1,1.32,3.11c.06.27.12.54.17.82s.05.27.07.41l0,.41c0,.14,0,.27,0,.41s0,.27,0,.41S427.1,503.2,427.08,503.47Z"/><path class="cls-14" d="M395.66,502.34c1.58,2,3.12,3.82,4.74,5.63s3.27,3.55,5,5.25a69.41,69.41,0,0,0,5.35,4.8,29.42,29.42,0,0,0,2.91,2.06l.39.22.39.21.4.19.41.18c.14.06.28.09.42.14a2.11,2.11,0,0,0,.43.12,4.54,4.54,0,0,0,.91.14,4.65,4.65,0,0,1-1.9.24,8.74,8.74,0,0,1-1.91-.38,17.48,17.48,0,0,1-3.49-1.59,30.37,30.37,0,0,1-6-4.66,37,37,0,0,1-4.8-5.8,31,31,0,0,1-1.89-3.26A20.64,20.64,0,0,1,395.66,502.34Z"/></svg>